<svg width="25" height="24" viewBox="0 0 25 24" fill="none" xmlns="http://www.w3.org/2000/svg">
<path d="M24.804 10.6011L24.3157 9.73299C24.251 9.61786 24.1443 9.53386 24.0193 9.49947C23.8941 9.46499 23.7608 9.48309 23.6488 9.54955L18.7166 12.4726H6.28334L1.35115 9.54955C1.239 9.48309 1.1058 9.46509 0.980656 9.49947C0.855563 9.53391 0.748926 9.61786 0.684182 9.73299L0.195968 10.6011C-0.207874 11.3192 0.0325954 12.2406 0.732081 12.6551L5.66432 15.5782V21.9956C5.66432 22.8247 6.32142 23.4993 7.12911 23.4993H17.8709C18.6786 23.4993 19.3357 22.8247 19.3357 21.9956V15.5782L24.268 12.6551C24.6059 12.4549 24.8478 12.1305 24.9493 11.7418C25.0506 11.3531 24.999 10.948 24.804 10.6011ZM12.2841 22.4968L18.3591 16.2608V18.8528L14.8092 22.4968H12.2841ZM18.3591 14.8431L10.9031 22.4968H8.37804L17.1668 13.4751H18.3591V14.8431ZM7.97346 13.4751L6.6408 14.8431V13.4751H7.97346ZM1.2203 11.787C1.10829 11.7206 1.02792 11.6124 0.993985 11.4824C0.960051 11.3523 0.976945 11.2173 1.04164 11.1023L1.28577 10.6683L5.66427 13.2633V14.4208L1.2203 11.787ZM6.6408 20.2704L8.39718 18.4675C8.58784 18.2717 8.58784 17.9544 8.39718 17.7586C8.20651 17.5628 7.89734 17.5629 7.70663 17.7586L6.6408 18.8527V16.2607L9.35456 13.475H11.8796L10.8139 14.569C10.6232 14.7647 10.6232 15.082 10.8139 15.2778C10.9092 15.3757 11.0342 15.4246 11.1591 15.4246C11.2841 15.4246 11.4091 15.3757 11.5044 15.2778L13.2606 13.4751H15.7856L7.01178 22.4816C6.79909 22.4275 6.6408 22.2304 6.6408 21.9956V20.2704ZM17.8708 22.4968H16.1902L18.3591 20.2705V21.9956C18.3591 22.272 18.1401 22.4968 17.8708 22.4968ZM24.0059 11.4824C23.972 11.6124 23.8916 11.7206 23.7796 11.787L19.3356 14.4208V13.2633L23.7141 10.6683L23.9583 11.1024C24.023 11.2173 24.0399 11.3523 24.0059 11.4824Z" fill="#ED411B"/>
<path d="M10.2435 4.69579L10.1018 5.80477C10.0637 6.01643 10.092 6.2303 10.1842 6.42452C10.3531 6.78048 10.7014 6.98783 11.0634 6.98783C11.2067 6.98783 11.3521 6.95535 11.4892 6.88678L12.4884 6.38753L13.5168 6.89044C13.6885 6.97459 13.88 7.00477 14.0706 6.9777C14.6034 6.90207 14.9768 6.3956 14.9031 5.84797L14.7491 4.71674L15.5043 3.89907C15.6536 3.75101 15.7513 3.56201 15.7871 3.35135C15.8319 3.08766 15.774 2.82187 15.6241 2.60284C15.4742 2.38382 15.2502 2.23786 14.9945 2.19205L13.8994 1.99292L13.3556 0.965994C13.3555 0.965894 13.3555 0.965793 13.3555 0.965693C13.2641 0.793578 13.1267 0.65379 12.9581 0.561468C12.484 0.301891 11.8924 0.486587 11.6394 0.973662L11.1165 1.98114L10.0183 2.19065C9.82136 2.22313 9.64143 2.3153 9.49739 2.45754C9.30966 2.64289 9.20346 2.89219 9.19843 3.15959C9.1934 3.42698 9.29003 3.68029 9.47103 3.87341L10.2435 4.69579ZM10.1898 3.17743L11.5261 2.92251C11.6722 2.89465 11.798 2.80002 11.8679 2.66539L12.4986 1.44655L13.1538 2.68374C13.2247 2.81771 13.3513 2.91129 13.4976 2.93785L14.8255 3.17843C14.8182 3.1854 14.8111 3.19262 14.8043 3.20003L13.8787 4.2022C13.7765 4.31287 13.7289 4.46534 13.7495 4.6164L13.9372 5.98561L12.6962 5.37874C12.562 5.31313 12.4061 5.31379 12.2725 5.3806L11.0622 5.98626C11.0646 5.97433 11.0666 5.96235 11.0681 5.95027L11.2423 4.58683C11.2617 4.43562 11.2129 4.2836 11.1097 4.17378L10.1733 3.18034C10.1788 3.17944 10.1843 3.17848 10.1898 3.17743Z" fill="#ED411B"/>
<path d="M12.0381 8.34508V10.6683C12.0381 10.9451 12.2567 11.1695 12.5263 11.1695C12.796 11.1695 13.0146 10.9451 13.0146 10.6683V8.34508C13.0146 8.06826 12.796 7.84387 12.5263 7.84387C12.2567 7.84387 12.0381 8.06826 12.0381 8.34508Z" fill="#ED411B"/>
<path d="M6.12765 6.82899C5.99279 7.06872 6.07281 7.37526 6.30635 7.51364C7.34459 8.12898 8.02416 9.61461 8.08133 10.6955C8.09549 10.9626 8.31091 11.1695 8.56847 11.1695C8.57741 11.1695 8.58639 11.1693 8.59538 11.1688C8.86465 11.1538 9.07104 10.9175 9.05644 10.6411C8.98438 9.279 8.18431 7.46913 6.79461 6.64555C6.56118 6.50711 6.2625 6.58931 6.12765 6.82899Z" fill="#ED411B"/>
<path d="M1.78175 5.66113L2.79353 6.06466L3.18639 7.10261C3.27652 7.34169 3.46177 7.5318 3.69472 7.62432C3.79975 7.66597 3.90775 7.68572 4.01414 7.68572C4.37062 7.68572 4.70767 7.46393 4.84346 7.10326L5.23656 6.06466L6.2477 5.66138C6.48065 5.56886 6.66585 5.37865 6.75589 5.13962C6.84148 4.91238 6.83572 4.66458 6.73968 4.44179C6.64363 4.219 6.46889 4.04794 6.24834 3.96043L5.23656 3.55691L4.8436 2.5188C4.75347 2.27972 4.56822 2.08967 4.33532 1.99724C3.87841 1.8159 3.3629 2.05007 3.18663 2.5183L2.79353 3.55691L1.78244 3.96018C1.54949 4.0527 1.36424 4.24286 1.2742 4.48199C1.18866 4.70919 1.19442 4.95703 1.29046 5.17977C1.38641 5.40256 1.56121 5.57362 1.78175 5.66113ZM3.34761 4.41132C3.47529 4.36039 3.57632 4.25674 3.62592 4.12563L4.01507 3.0975L4.40422 4.12563C4.45382 4.25669 4.5548 4.36039 4.68253 4.41132L5.6841 4.81073L4.68253 5.21019C4.55484 5.26112 4.45382 5.36477 4.40422 5.49588L4.01507 6.52401L3.62592 5.49588C3.57632 5.36482 3.47534 5.26112 3.34761 5.21019L2.34609 4.81073L3.34761 4.41132Z" fill="#ED411B"/>
<path d="M16.4044 11.1688C16.4135 11.1693 16.4224 11.1695 16.4313 11.1695C16.6888 11.1695 16.9043 10.9626 16.9185 10.6955C16.9756 9.61468 17.6552 8.129 18.6934 7.51366C18.927 7.37528 19.007 7.06874 18.8722 6.82901C18.7373 6.58923 18.4387 6.50713 18.2052 6.64557C16.8155 7.46916 16.0154 9.27902 15.9434 10.6411C15.9288 10.9175 16.1352 11.1537 16.4044 11.1688Z" fill="#ED411B"/>
<path d="M18.7515 5.6611L19.7633 6.06463L20.1561 7.10243C20.2922 7.46375 20.6292 7.68564 20.9859 7.68564C21.0922 7.68564 21.2003 7.66589 21.3053 7.62424C21.5381 7.53182 21.7234 7.34166 21.8133 7.10323L22.2064 6.06463L23.2174 5.6614C23.6743 5.48006 23.9024 4.95099 23.7257 4.48181C23.6357 4.24278 23.4504 4.05262 23.2182 3.96035L22.2064 3.55682L21.8136 2.51902C21.637 2.04994 21.1217 1.81592 20.6645 1.99711C20.4318 2.08943 20.2467 2.27934 20.1565 2.51817L19.7634 3.55677L18.7524 3.95995C18.2954 4.14123 18.0674 4.67036 18.244 5.13944C18.334 5.37867 18.5192 5.56883 18.7515 5.6611ZM20.3174 4.41129C20.4451 4.36036 20.5461 4.25671 20.5957 4.1256L20.9848 3.09746L21.3739 4.1256C21.4235 4.25666 21.5245 4.36036 21.6523 4.41129L22.6538 4.8107L21.6523 5.21016C21.5246 5.26109 21.4235 5.36474 21.3739 5.49585L20.9848 6.52398L20.5957 5.49585C20.5461 5.36479 20.4451 5.26109 20.3174 5.21016L19.3158 4.8107L20.3174 4.41129Z" fill="#ED411B"/>
<path d="M9.60586 17.0196C9.87554 17.0196 10.0941 16.7952 10.0941 16.5184C10.0941 16.2416 9.87554 16.0172 9.60586 16.0172H9.60552C9.33584 16.0172 9.11743 16.2416 9.11743 16.5184C9.11743 16.7952 9.33618 17.0196 9.60586 17.0196Z" fill="#ED411B"/>
</svg>
