<svg width="32" height="32" viewBox="0 0 32 32" fill="none" xmlns="http://www.w3.org/2000/svg">
<circle cx="16" cy="16" r="16" fill="#63499c"/>
<path d="M15.9992 11.7622C14.875 11.7622 13.7969 12.2088 13.002 13.0037C12.2071 13.7986 11.7605 14.8767 11.7605 16.0009C11.7605 17.125 12.2071 18.2032 13.002 18.9981C13.7969 19.793 14.875 20.2395 15.9992 20.2395C17.1233 20.2395 18.2015 19.793 18.9964 18.9981C19.7913 18.2032 20.2378 17.125 20.2378 16.0009C20.2378 14.8767 19.7913 13.7986 18.9964 13.0037C18.2015 12.2088 17.1233 11.7622 15.9992 11.7622ZM15.9992 18.7536C15.2688 18.7536 14.5684 18.4635 14.052 17.9471C13.5356 17.4307 13.2455 16.7303 13.2455 16C13.2455 15.2696 13.5356 14.5692 14.052 14.0528C14.5684 13.5364 15.2688 13.2463 15.9992 13.2463C16.7295 13.2463 17.4299 13.5364 17.9463 14.0528C18.4627 14.5692 18.7528 15.2696 18.7528 16C18.7528 16.7303 18.4627 17.4307 17.9463 17.9471C17.4299 18.4635 16.7295 18.7536 15.9992 18.7536Z" fill="white"/>
<path d="M20.4054 12.5945C20.9512 12.5945 21.3936 12.1521 21.3936 11.6063C21.3936 11.0606 20.9512 10.6182 20.4054 10.6182C19.8597 10.6182 19.4172 11.0606 19.4172 11.6063C19.4172 12.1521 19.8597 12.5945 20.4054 12.5945Z" fill="white"/>
<path d="M23.822 10.6016C23.6098 10.0536 23.2855 9.5559 22.8699 9.14045C22.4543 8.72499 21.9565 8.40089 21.4085 8.18889C20.7671 7.94814 20.0895 7.81796 19.4046 7.80389C18.5219 7.76539 18.2423 7.75439 16.0038 7.75439C13.7653 7.75439 13.4784 7.75439 12.603 7.80389C11.9186 7.81724 11.2415 7.94745 10.601 8.18889C10.0527 8.40065 9.55482 8.72466 9.13918 9.14015C8.72353 9.55563 8.39933 10.0534 8.18737 10.6016C7.94657 11.2429 7.81668 11.9205 7.80329 12.6054C7.76387 13.4872 7.75195 13.7668 7.75195 16.0062C7.75195 18.2447 7.75195 18.5298 7.80329 19.4071C7.81704 20.0927 7.94629 20.7692 8.18737 21.4118C8.39992 21.9598 8.72444 22.4573 9.14019 22.8728C9.55593 23.2882 10.0538 23.6123 10.6019 23.8245C11.2412 24.0749 11.9185 24.2144 12.6048 24.237C13.4875 24.2755 13.7671 24.2874 16.0056 24.2874C18.2441 24.2874 18.531 24.2874 19.4065 24.237C20.0913 24.223 20.7688 24.0932 21.4103 23.8529C21.9582 23.6404 22.4559 23.316 22.8714 22.9005C23.287 22.4849 23.6114 21.9873 23.8239 21.4393C24.065 20.7976 24.1942 20.1211 24.208 19.4355C24.2474 18.5536 24.2593 18.2741 24.2593 16.0346C24.2593 13.7952 24.2593 13.5111 24.208 12.6338C24.1973 11.9392 24.0667 11.2517 23.822 10.6016ZM22.7055 19.3392C22.6996 19.8675 22.6032 20.3909 22.4205 20.8866C22.2828 21.243 22.072 21.5667 21.8018 21.8369C21.5315 22.107 21.2077 22.3175 20.8511 22.455C20.3609 22.6369 19.8431 22.7333 19.3203 22.7401C18.4495 22.7804 18.2038 22.7905 15.9708 22.7905C13.736 22.7905 13.5077 22.7905 12.6204 22.7401C12.0978 22.7337 11.5803 22.6372 11.0905 22.455C10.7327 22.3184 10.4075 22.1082 10.1361 21.838C9.86467 21.5679 9.65297 21.2437 9.5147 20.8866C9.33453 20.3962 9.23816 19.879 9.22962 19.3566C9.1902 18.4858 9.18104 18.2401 9.18104 16.0071C9.18104 13.7732 9.18104 13.545 9.22962 12.6567C9.23554 12.1287 9.33197 11.6057 9.5147 11.1103C9.79429 10.3871 10.3672 9.81781 11.0905 9.54098C11.5805 9.35961 12.0979 9.26319 12.6204 9.25589C13.4921 9.21648 13.7369 9.20548 15.9708 9.20548C18.2047 9.20548 18.4339 9.20548 19.3203 9.25589C19.8432 9.26218 20.361 9.35863 20.8511 9.54098C21.2076 9.67873 21.5314 9.8895 21.8017 10.1598C22.0719 10.43 22.2827 10.7538 22.4205 11.1103C22.6006 11.6007 22.697 12.1179 22.7055 12.6402C22.745 13.512 22.755 13.7567 22.755 15.9906C22.755 18.2236 22.755 18.4638 22.7156 19.3401H22.7055V19.3392Z" fill="white"/>
</svg>
