<svg width="61" height="55" viewBox="0 0 61 55" fill="none" xmlns="http://www.w3.org/2000/svg">
<path d="M56.0806 14.7841C53.7056 14.7841 51.7182 16.6015 51.2607 19.0082H41.8145L43.2903 16.8961C44.5595 15.0788 45.2581 12.8284 45.2581 10.5601C45.2581 4.73726 40.8444 0 35.4194 0C29.9943 0 25.5806 4.73726 25.5806 10.5601C25.5806 12.8284 26.2792 15.0788 27.5484 16.8961L29.0242 19.0082H9.73934C9.28184 16.6015 7.29442 14.7841 4.91935 14.7841C2.20682 14.7841 0 17.1528 0 20.0642V49.6324C0 52.5438 2.20682 54.9125 4.91935 54.9125H56.0806C58.7932 54.9125 61 52.5438 61 49.6324V20.0642C61 17.1528 58.7932 14.7841 56.0806 14.7841ZM51.1613 44.3524H47.2258V40.1283H51.1613V44.3524ZM51.1613 38.0163H47.2258C46.1406 38.0163 45.2581 38.9636 45.2581 40.1283V44.3524C45.2581 45.5172 46.1406 46.4644 47.2258 46.4644H51.1613V48.5764H47.2258C46.1406 48.5764 45.2581 49.5237 45.2581 50.6884V52.8005H43.2903V41.1844C43.2903 39.4377 41.966 38.0163 40.3387 38.0163H31.4839C29.8565 38.0163 28.5323 39.4377 28.5323 41.1844V52.8005H26.5645V39.0723C26.5645 38.4884 26.1247 38.0163 25.5806 38.0163H18.6935C18.1495 38.0163 17.7097 38.4884 17.7097 39.0723V39.9055C17.7097 44.4939 16.4926 48.9355 14.2091 52.8005H11.7356C14.3517 48.7464 15.7419 44.0113 15.7419 39.0723C15.7419 38.4884 15.3021 38.0163 14.7581 38.0163H9.83871V35.9043H12.7903C14.4176 35.9043 15.7419 34.4829 15.7419 32.7363V29.7393C15.7419 28.8291 16.2831 28.0244 17.0879 27.7361L21.9049 26.0127C23.5145 25.4361 24.5968 23.8257 24.5968 22.0051V21.1202H26.5645V22.8901C26.5645 25.1658 25.2127 27.1796 23.2007 27.8987L19.0556 29.3813C18.2508 29.6696 17.7097 30.4743 17.7097 31.3856V32.7363C17.7097 34.4829 19.034 35.9043 20.6613 35.9043H40.3387C41.966 35.9043 43.2903 34.4829 43.2903 32.7363V21.1202H45.2581V32.7363C45.2581 34.4829 46.5824 35.9043 48.2097 35.9043H51.1613V38.0163ZM41.3226 52.8005H30.5V41.1844C30.5 40.6014 30.9408 40.1283 31.4839 40.1283H40.3387C40.8818 40.1283 41.3226 40.6014 41.3226 41.1844V52.8005ZM24.5968 52.8005H16.5172C18.5558 48.9355 19.642 44.5974 19.6764 40.1283H24.5968V52.8005ZM9.83871 33.7923V21.1202H22.629V22.0051C22.629 22.9154 22.0879 23.7201 21.2831 24.0084L16.4661 25.7318C14.8565 26.3084 13.7742 27.9188 13.7742 29.7393V32.7363C13.7742 33.3192 13.3334 33.7923 12.7903 33.7923H9.83871ZM51.1613 33.7923H48.2097C47.6666 33.7923 47.2258 33.3192 47.2258 32.7363V21.1202H51.1613V33.7923ZM35.4194 2.11202C39.7592 2.11202 43.2903 5.90204 43.2903 10.5601C43.2903 12.3754 42.7315 14.1759 41.7161 15.63L35.4194 24.6399L29.1226 15.63C28.1072 14.1759 27.5484 12.3754 27.5484 10.5601C27.5484 5.90204 31.0795 2.11202 35.4194 2.11202ZM38.371 26.4002C38.371 27.5449 37.0191 28.5122 35.4194 28.5122C33.8196 28.5122 32.4677 27.5449 32.4677 26.4002C32.4677 25.8933 32.7521 25.4034 33.2243 25.019L34.6323 27.0338C34.8172 27.2999 35.1094 27.4562 35.4194 27.4562C35.7293 27.4562 36.0205 27.2999 36.2065 27.0338L37.6144 25.019C38.0866 25.4034 38.371 25.8933 38.371 26.4002ZM32.0398 23.323C31.0697 24.1076 30.5 25.2133 30.5 26.4002C30.5 28.7298 32.7068 30.6243 35.4194 30.6243C38.1319 30.6243 40.3387 28.7298 40.3387 26.4002C40.3387 25.2133 39.7691 24.1076 38.799 23.323L40.3387 21.1202H41.3226V32.7363C41.3226 33.3192 40.8818 33.7923 40.3387 33.7923H20.6613C20.1182 33.7923 19.6774 33.3192 19.6774 32.7363V31.3856L23.8235 29.902C26.6393 28.8945 28.5323 26.076 28.5323 22.8901V21.1202H30.5L32.0398 23.323ZM1.96774 20.0642C1.96774 18.3175 3.29203 16.8961 4.91935 16.8961C6.54668 16.8961 7.87097 18.3175 7.87097 20.0642V45.4105C7.04845 44.7463 6.02621 44.3524 4.91935 44.3524C3.8125 44.3524 2.79026 44.7463 1.96774 45.4105V20.0642ZM1.96774 49.6324C1.96774 47.8858 3.29203 46.4644 4.91935 46.4644C6.54668 46.4644 7.87097 47.8858 7.87097 49.6324C7.87097 50.2164 8.31076 50.6884 8.85484 50.6884C9.39892 50.6884 9.83871 50.2164 9.83871 49.6324V40.1283H13.7516C13.5656 44.3598 12.262 48.3969 9.95579 51.8659L9.333 52.8005H4.91935C3.29203 52.8005 1.96774 51.3791 1.96774 49.6324ZM56.0806 52.8005H47.2258V50.6884H52.1452C52.6892 50.6884 53.129 50.2164 53.129 49.6324C53.129 47.8858 54.4533 46.4644 56.0806 46.4644C57.708 46.4644 59.0323 47.8858 59.0323 49.6324C59.0323 51.3791 57.708 52.8005 56.0806 52.8005ZM59.0323 45.4105C58.2097 44.7463 57.1875 44.3524 56.0806 44.3524C54.9738 44.3524 53.9515 44.7463 53.129 45.4105V20.0642C53.129 18.3175 54.4533 16.8961 56.0806 16.8961C57.708 16.8961 59.0323 18.3175 59.0323 20.0642V45.4105Z" fill="#E54343"/>
<path d="M35.4193 14.7847C38.1319 14.7847 40.3387 12.4161 40.3387 9.50465C40.3387 6.59324 38.1319 4.22461 35.4193 4.22461C32.7068 4.22461 30.5 6.59324 30.5 9.50465C30.5 12.4161 32.7068 14.7847 35.4193 14.7847ZM35.4193 6.33663C37.0467 6.33663 38.3709 7.75802 38.3709 9.50465C38.3709 11.2513 37.0467 12.6727 35.4193 12.6727C33.792 12.6727 32.4677 11.2513 32.4677 9.50465C32.4677 7.75802 33.792 6.33663 35.4193 6.33663Z" fill="#E54343"/>
</svg>
