<svg width="32" height="32" viewBox="0 0 32 32" fill="none" xmlns="http://www.w3.org/2000/svg">
<g clip-path="url(#clip0)">
<path d="M7.46829 18.4044C7.18005 18.6953 7.11099 19.1441 7.30842 19.5029C7.98696 20.7363 9.68615 21.2828 10.9694 20.3321C13.9643 18.1115 18.0704 18.1365 21.0315 20.3321C22.313 21.2815 24.0134 20.7373 24.6924 19.5031C24.8898 19.1443 24.821 18.6954 24.5326 18.4045C19.8346 13.6636 12.1714 13.6579 7.46829 18.4044Z" fill="#D3D3D3"/>
<path d="M6.25044 16.9954C11.7266 11.6144 20.3493 11.6936 25.7485 16.9953C25.9832 17.2257 26.3197 17.321 26.6383 17.2399C27.626 16.9885 28.3688 16.1431 28.4629 15.121C28.4888 14.8404 28.385 14.5627 28.1832 14.3659C21.3949 7.74741 10.5963 7.75541 3.81596 14.3659C3.61422 14.5626 3.51035 14.8402 3.53622 15.1208C3.63047 16.1416 4.37169 16.9882 5.36041 17.2398C5.67915 17.321 6.01589 17.2259 6.25044 16.9954Z" fill="#D3D3D3"/>
<path d="M0.718809 13.1179C0.800245 13.1984 0.884367 13.272 0.970613 13.3391C1.34129 13.6272 1.87208 13.5864 2.20182 13.2521C9.79201 5.55895 22.1998 5.55551 29.8007 13.2559C30.1389 13.5986 30.6837 13.6277 31.0567 13.3233C31.1174 13.2738 31.1762 13.2209 31.2328 13.1648C32.3496 12.063 32.1803 10.4474 31.1565 9.57369C22.4506 2.14269 9.55226 2.13956 0.842554 9.57369C-0.23241 10.4911 -0.284283 12.1242 0.718809 13.1179Z" fill="#D3D3D3"/>
<path d="M16.0001 28.0006C14.6194 28.0006 13.5002 26.8813 13.5002 25.5006C13.5002 24.12 14.6194 23.0007 16.0001 23.0007C17.3807 23.0007 18.5 24.12 18.5 25.5006C18.5 26.8813 17.3807 28.0006 16.0001 28.0006Z" fill="#D3D3D3"/>
</g>
<defs>
<clipPath id="clip0">
<rect width="32" height="32" fill="white" transform="matrix(-1 0 0 1 32 0)"/>
</clipPath>
</defs>
</svg>
