<svg width="58" height="58" viewBox="0 0 58 58" fill="none" xmlns="http://www.w3.org/2000/svg">
<path d="M43.6876 14.366C43.2052 12.9723 42.6691 11.6322 42.0259 10.3457C38.8096 3.80591 34.0388 0 29 0C19.6192 0 12.0074 13.0259 12.0074 29C12.0074 33.5028 12.597 37.7911 13.7227 41.7043C6.43253 38.9704 1.66174 34.3068 1.66174 29C1.66174 24.3364 5.41405 19.9945 12.0074 17.0462C12.4362 16.8854 12.597 16.3494 12.4362 15.9741C12.2754 15.5453 11.7394 15.3845 11.3641 15.5453C4.12754 18.7616 0 23.6396 0 29C0 35.2181 5.78928 40.6858 14.366 43.634C15.0628 45.671 15.9205 47.6007 16.8854 49.3161C20.1017 54.8909 24.39 58 29 58C34.3604 58 39.2921 53.8725 42.5083 46.5823C42.6691 46.1534 42.5083 45.671 42.0795 45.5102C41.6506 45.3494 41.1682 45.5102 41.0074 45.939C38.0592 52.5323 33.6636 56.3383 29 56.3383C24.9797 56.3383 21.1738 53.5508 18.2791 48.512C17.5287 47.2255 16.8854 45.7782 16.2957 44.2773C20.1553 45.3494 24.4436 45.9926 29 45.9926C44.9741 45.9926 58 38.3808 58 29C58 22.7819 52.2107 17.3142 43.6876 14.366ZM29 44.3309C24.1756 44.3309 19.6192 43.634 15.6525 42.4011C14.366 38.3808 13.6691 33.7708 13.6691 29.0536C13.6691 13.9908 20.5305 1.71534 29 1.71534C33.3956 1.71534 37.6303 5.14603 40.525 11.1497C40.9538 12.0074 41.2754 12.8651 41.6506 13.7763C37.8447 12.7043 33.5028 12.061 29 12.061C25.0333 12.061 21.1738 12.5434 17.5823 13.4011C17.1534 13.5083 16.8854 13.9372 16.9926 14.4196C17.0998 14.8484 17.5287 15.1165 18.0111 15.0092C21.4954 14.1516 25.1941 13.7227 29.0536 13.7227C33.878 13.7227 38.4344 14.4196 42.4011 15.6525C42.7763 16.7782 43.098 18.0111 43.366 19.244C44.0628 22.3531 44.3845 25.6765 44.3845 29.0536C44.3845 32.8595 43.9556 36.5046 43.098 39.9889C42.9908 40.4177 43.2588 40.9002 43.6876 41.0074C44.1165 41.1146 44.5989 40.8466 44.7061 40.4177C45.5638 36.8262 46.0462 33.0203 46.0462 29.1072C46.0462 25.6229 45.671 22.1922 44.9741 18.976C44.7597 18.1183 44.5453 17.2606 44.3309 16.403C51.5675 19.0296 56.3383 23.6932 56.3383 29C56.3383 37.4695 44.0628 44.3309 29 44.3309Z" fill="#E54343"/>
<path d="M20.6905 30.4489C21.8162 30.0201 22.3522 29.2696 22.3522 28.3583C22.3522 27.1254 21.2801 26.1069 19.3504 26.1069C18.1711 26.1069 17.099 26.4286 16.5629 26.8038L16.9918 28.3047C17.367 28.0903 18.1175 27.7687 18.8679 27.7687C19.7256 27.7687 20.208 28.1439 20.208 28.6799C20.208 29.4304 19.2968 29.6984 18.5999 29.6984H17.7958V31.1994H18.6535C19.5648 31.1994 20.4761 31.5746 20.4761 32.4859C20.4761 33.1827 19.94 33.6652 18.8143 33.6652C17.9567 33.6652 17.099 33.2899 16.7238 33.1291L16.2949 34.6837C16.831 35.0053 17.7958 35.3269 18.9751 35.3269C21.2265 35.3269 22.6202 34.1476 22.6202 32.5931C22.6739 31.4674 21.7626 30.6633 20.6905 30.4489Z" fill="#E54343"/>
<path d="M27.9811 29.216C27.1234 29.216 26.5337 29.484 26.1049 29.9129H26.0513C26.2657 28.8408 27.1234 27.9295 28.9996 27.7687C29.3212 27.7151 29.5892 27.7151 29.8036 27.7151V26.1069C29.5892 26.1069 29.3748 26.1069 28.946 26.1069C27.5522 26.1605 26.3729 26.643 25.4617 27.447C24.4968 28.3583 23.8535 29.752 23.8535 31.4138C23.8535 33.558 25.0328 35.3269 27.3914 35.3269C29.3212 35.3269 30.7149 33.8796 30.7149 32.1106C30.7149 30.2881 29.482 29.216 27.9811 29.216ZM27.3914 33.826C26.4265 33.826 25.9977 32.9683 25.9441 32.0034C25.9441 31.7354 25.9977 31.5746 26.0513 31.4674C26.2657 31.0385 26.7482 30.6633 27.2842 30.6633C28.1955 30.6633 28.6243 31.3602 28.6243 32.2178C28.6243 33.1827 28.1419 33.826 27.3914 33.826Z" fill="#E54343"/>
<path d="M34.9502 26.1069C32.6452 26.1069 31.5195 28.1439 31.5195 30.7705C31.5195 33.29 32.538 35.3805 34.843 35.3805C37.148 35.3805 38.2737 33.5044 38.2737 30.7169C38.2737 28.2511 37.3624 26.1069 34.9502 26.1069ZM34.9502 33.7724C34.1461 33.7724 33.6637 32.8075 33.6637 30.7169C33.6637 28.6264 34.1997 27.6615 34.9502 27.6615C35.8079 27.6615 36.2367 28.7336 36.2367 30.7169C36.1831 32.7539 35.7543 33.7724 34.9502 33.7724Z" fill="#E54343"/>
<path d="M39.9363 20.6372C38.2746 20.6372 36.8809 21.9773 36.8809 23.6927C36.8809 25.3545 38.221 26.7482 39.9363 26.7482C41.598 26.7482 42.9918 25.4081 42.9918 23.6927C42.9918 21.9773 41.6517 20.6372 39.9363 20.6372ZM39.9363 25.0328C39.1858 25.0328 38.5426 24.3896 38.5426 23.6391C38.5426 22.8886 39.1858 22.2454 39.9363 22.2454C40.6868 22.2454 41.33 22.8886 41.33 23.6391C41.33 24.4432 40.7404 25.0328 39.9363 25.0328Z" fill="#E54343"/>
</svg>
