<svg id="Layer_1" data-name="Layer 1" xmlns="http://www.w3.org/2000/svg" xmlns:xlink="http://www.w3.org/1999/xlink" viewBox="0 0 135 40"><defs><linearGradient id="linear-gradient" x1="458.82" y1="634.79" x2="442.04" y2="618.01" gradientTransform="matrix(1, 0, 0, -1, 0, 1002)" gradientUnits="userSpaceOnUse"><stop offset="0" stop-color="#4998d3"/><stop offset="0.01" stop-color="#4a99d3"/><stop offset="0.26" stop-color="#42baeb"/><stop offset="0.51" stop-color="#41c7f2"/><stop offset="0.76" stop-color="#56c9e9"/><stop offset="1" stop-color="#5bcae8"/></linearGradient><linearGradient id="linear-gradient-2" x1="470.85" y1="623.5" x2="446.66" y2="623.5" gradientTransform="matrix(1, 0, 0, -1, 0, 1002)" gradientUnits="userSpaceOnUse"><stop offset="0" stop-color="#fee000"/><stop offset="0.41" stop-color="#febd11"/><stop offset="0.78" stop-color="#faa51a"/><stop offset="1" stop-color="#f99c1c"/></linearGradient><linearGradient id="linear-gradient-3" x1="461.85" y1="621.2" x2="439.09" y2="598.45" gradientTransform="matrix(1, 0, 0, -1, 0, 1002)" gradientUnits="userSpaceOnUse"><stop offset="0" stop-color="#ef4049"/><stop offset="1" stop-color="#c31e63"/></linearGradient><linearGradient id="linear-gradient-4" x1="444.32" y1="643.32" x2="454.48" y2="633.16" gradientTransform="matrix(1, 0, 0, -1, 0, 1002)" gradientUnits="userSpaceOnUse"><stop offset="0" stop-color="#32a072"/><stop offset="0.07" stop-color="#2da771"/><stop offset="0.48" stop-color="#4bba71"/><stop offset="0.8" stop-color="#5ebd6b"/><stop offset="1" stop-color="#66be69"/></linearGradient></defs><title>Untitled-1</title><rect width="135" height="40" rx="5" ry="5"/><path d="M567,359.3a4.2,4.2,0,0,1,4.2,4.2v30a4.2,4.2,0,0,1-4.2,4.2H442a4.2,4.2,0,0,1-4.2-4.2v-30a4.2,4.2,0,0,1,4.2-4.2H567m0-.8H442a5,5,0,0,0-5,5v30a5,5,0,0,0,5,5H567a5,5,0,0,0,5-5v-30a5,5,0,0,0-5-5Z" transform="translate(-437.02 -358.5)" style="fill:#a7a6a6"/><path d="M505.16,380.25a4.25,4.25,0,1,0,4.27,4.25A4.19,4.19,0,0,0,505.16,380.25Zm0,6.83a2.58,2.58,0,1,1,2.4-2.58A2.46,2.46,0,0,1,505.16,387.08Zm-9.31-6.83a4.25,4.25,0,1,0,4.27,4.25A4.19,4.19,0,0,0,495.84,380.25Zm0,6.83a2.58,2.58,0,1,1,2.4-2.58A2.46,2.46,0,0,1,495.84,387.08Zm-11.08-5.53v1.8h4.32a3.77,3.77,0,0,1-1,2.27,4.42,4.42,0,0,1-3.33,1.32,4.8,4.8,0,0,1,0-9.6,4.6,4.6,0,0,1,3.25,1.29l1.27-1.27a6.29,6.29,0,0,0-4.53-1.82,6.61,6.61,0,1,0,0,13.21,6,6,0,0,0,4.61-1.85,6,6,0,0,0,1.56-4.22,5.87,5.87,0,0,0-.1-1.13Zm45.31,1.4a4,4,0,0,0-3.64-2.71,4,4,0,0,0-4,4.25,4.16,4.16,0,0,0,4.22,4.25,4.23,4.23,0,0,0,3.54-1.88l-1.45-1a2.43,2.43,0,0,1-2.09,1.18,2.16,2.16,0,0,1-2.06-1.29l5.69-2.35Zm-5.8,1.42a2.33,2.33,0,0,1,2.22-2.48,1.65,1.65,0,0,1,1.58.9Zm-4.62,4.12h1.87V376h-1.87Zm-3.06-7.3h-.06a3,3,0,0,0-2.24-1,4.26,4.26,0,0,0,0,8.51,2.9,2.9,0,0,0,2.24-1h.06v.61c0,1.63-.87,2.5-2.27,2.5a2.35,2.35,0,0,1-2.14-1.51l-1.63.68a4.05,4.05,0,0,0,3.77,2.51c2.19,0,4-1.29,4-4.43v-7.64h-1.77Zm-2.14,5.88a2.59,2.59,0,0,1,0-5.16,2.6,2.6,0,0,1,0,5.16ZM538.83,376h-4.47v12.5h1.87v-4.74h2.61a3.89,3.89,0,1,0,0-7.76Zm0,6h-2.65v-4.29h2.65a2.14,2.14,0,1,1,0,4.29Zm11.53-1.8a3.5,3.5,0,0,0-3.33,1.91l1.66.69a1.77,1.77,0,0,1,1.7-.92,1.8,1.8,0,0,1,2,1.61v.13a4.13,4.13,0,0,0-1.95-.48c-1.79,0-3.6,1-3.6,2.81a2.89,2.89,0,0,0,3.1,2.75,2.63,2.63,0,0,0,2.38-1.22h.06v1h1.8v-4.79C554.2,381.47,552.54,380.23,550.41,380.23Zm-.23,6.85c-.61,0-1.46-.31-1.46-1.06,0-1,1.06-1.33,2-1.33a3.32,3.32,0,0,1,1.7.42A2.26,2.26,0,0,1,550.18,387.08Zm10.58-6.58-2.14,5.42h-.06l-2.22-5.42h-2l3.33,7.58-1.9,4.21h1.95l5.13-11.79Zm-16.81,8h1.87V376H544Z" transform="translate(-437.02 -358.5)" style="fill:#fff"/><path d="M447.45,366a2,2,0,0,0-.46,1.4v22.12a2,2,0,0,0,.46,1.4l.07.07,12.39-12.39v-.29L447.53,366Z" transform="translate(-437.02 -358.5)" style="fill:url(#linear-gradient)"/><path d="M464,382.78l-4.13-4.13v-.29l4.13-4.13.09.05,4.89,2.78c1.4.79,1.4,2.09,0,2.89l-4.89,2.78Z" transform="translate(-437.02 -358.5)" style="fill:url(#linear-gradient-2)"/><path d="M464.14,382.72l-4.22-4.22L447.45,391a1.63,1.63,0,0,0,2.08.06l14.61-8.3" transform="translate(-437.02 -358.5)" style="fill:url(#linear-gradient-3)"/><path d="M464.14,374.28,449.53,366a1.63,1.63,0,0,0-2.08.06l12.46,12.46Z" transform="translate(-437.02 -358.5)" style="fill:url(#linear-gradient-4)"/><path d="M464,382.63l-14.52,8.25a1.67,1.67,0,0,1-2,0h0l-.07.07h0l.07.07h0a1.66,1.66,0,0,0,2,0l14.61-8.3Z" transform="translate(-437.02 -358.5)" style="fill:#010101;opacity:0.2;isolation:isolate"/><path d="M447.45,390.82a2,2,0,0,1-.46-1.4v.15a2,2,0,0,0,.46,1.4l.07-.07Z" transform="translate(-437.02 -358.5)" style="fill:#010101;opacity:0.12;isolation:isolate"/><path d="M469,379.8l-5,2.83.09.09,4.89-2.78a1.75,1.75,0,0,0,1-1.44h0A1.86,1.86,0,0,1,469,379.8Z" transform="translate(-437.02 -358.5)" style="fill:#010101;opacity:0.12;isolation:isolate"/><path d="M449.53,366.12,469,377.2a1.86,1.86,0,0,1,1,1.3h0a1.75,1.75,0,0,0-1-1.44L449.53,366c-1.4-.79-2.54-.13-2.54,1.47v.15C447,366,448.14,365.33,449.53,366.12Z" transform="translate(-437.02 -358.5)" style="fill:#fff;opacity:0.25;isolation:isolate"/><path d="M479.13,372.77h-.74v-2H479a2.86,2.86,0,0,0,.76-2.3v-3h4v5.26h.67v2h-.74V371.5h-4.55Zm1.38-4.31a4,4,0,0,1-.57,2.3h3v-4.53h-2.46Z" transform="translate(-437.02 -358.5)" style="fill:#fff;stroke:#fff;stroke-miterlimit:10;stroke-width:0.2px"/><path d="M490.43,370.72a3.12,3.12,0,0,1-4.4,0,3.24,3.24,0,0,1,0-4.45,3.1,3.1,0,0,1,4.4,0,3.23,3.23,0,0,1,0,4.45Zm-3.83-.5a2.31,2.31,0,0,0,3.26,0,2.56,2.56,0,0,0,0-3.44,2.31,2.31,0,0,0-3.26,0,2.56,2.56,0,0,0,0,3.44Z" transform="translate(-437.02 -358.5)" style="fill:#fff;stroke:#fff;stroke-miterlimit:10;stroke-width:0.2px"/><path d="M495.2,371.63a3.13,3.13,0,1,1,0-6.27,2.77,2.77,0,0,1,2.2,1l-.54.52a2,2,0,0,0-1.67-.76,2.27,2.27,0,0,0-1.66.66,2.57,2.57,0,0,0,0,3.47,2.27,2.27,0,0,0,1.66.66A2.37,2.37,0,0,0,497,370l.54.54a2.92,2.92,0,0,1-1,.78A3.15,3.15,0,0,1,495.2,371.63Z" transform="translate(-437.02 -358.5)" style="fill:#fff;stroke:#fff;stroke-miterlimit:10;stroke-width:0.2px"/><path d="M500.7,371.5h-.77v-5.26h-1.68v-.74h4.12v.74H500.7Z" transform="translate(-437.02 -358.5)" style="fill:#fff;stroke:#fff;stroke-miterlimit:10;stroke-width:0.2px"/><path d="M507.67,365.5l-2.27,5.06a1.51,1.51,0,0,1-1.4,1.07,1.54,1.54,0,0,1-.6-.13l.2-.71a.81.81,0,0,0,.4.11.71.71,0,0,0,.42-.1.94.94,0,0,0,.27-.38l.22-.48-2-4.43h.91l1.48,3.44h0l1.45-3.44Z" transform="translate(-437.02 -358.5)" style="fill:#fff;stroke:#fff;stroke-miterlimit:10;stroke-width:0.2px"/><path d="M508.54,371.5v-6h4.34v6h-.77v-5.26h-2.8v5.26Z" transform="translate(-437.02 -358.5)" style="fill:#fff;stroke:#fff;stroke-miterlimit:10;stroke-width:0.2px"/><path d="M514.25,371.5v-6H515v2.57h3V365.5h.77v6H518v-2.71h-3v2.71Z" transform="translate(-437.02 -358.5)" style="fill:#fff;stroke:#fff;stroke-miterlimit:10;stroke-width:0.2px"/><path d="M525.08,370.72a3.12,3.12,0,0,1-4.4,0,3.24,3.24,0,0,1,0-4.45,3.1,3.1,0,0,1,4.4,0,3.23,3.23,0,0,1,0,4.45Zm-3.83-.5a2.31,2.31,0,0,0,3.26,0,2.56,2.56,0,0,0,0-3.44,2.31,2.31,0,0,0-3.26,0,2.56,2.56,0,0,0,0,3.44Z" transform="translate(-437.02 -358.5)" style="fill:#fff;stroke:#fff;stroke-miterlimit:10;stroke-width:0.2px"/><path d="M529.11,371.5v-6h2.17a1.76,1.76,0,0,1,1.22.46,1.51,1.51,0,0,1,.52,1.17,1.31,1.31,0,0,1-.22.75,1.39,1.39,0,0,1-.59.49v0a1.52,1.52,0,0,1,.73.52,1.36,1.36,0,0,1,.29.85,1.57,1.57,0,0,1-.54,1.22,1.85,1.85,0,0,1-1.28.49Zm.77-3.43h1.4a.9.9,0,0,0,.7-.29.89.89,0,0,0,0-1.26.86.86,0,0,0-.67-.29h-1.43Zm0,2.69h1.55a.92.92,0,0,0,.72-.31,1,1,0,0,0,.28-.68,1,1,0,0,0-1-1h-1.52Z" transform="translate(-437.02 -358.5)" style="fill:#fff;stroke:#fff;stroke-miterlimit:10;stroke-width:0.2px"/></svg>