<svg id="Layer_1" data-name="Layer 1" xmlns="http://www.w3.org/2000/svg" viewBox="0 0 1242.45 382.6"><defs><style>.cls-1{fill:#ed3237;}.cls-1,.cls-2,.cls-3,.cls-4{fill-rule:evenodd;}.cls-2{fill:#fefefe;}.cls-3,.cls-5{fill:#273c52;}.cls-4{fill:#e43838;}</style></defs><g id="Слой_1" data-name="Слой 1"><g id="_2842905211264" data-name=" 2842905211264"><path class="cls-1" d="M191.3,0C297,0,382.6,85.65,382.6,191.3S297,382.6,191.3,382.6,0,297,0,191.3,85.64,0,191.3,0Z" transform="translate(0)"/><path class="cls-2" d="M191.3,81.09A110.19,110.19,0,1,1,81.1,191.28,110.19,110.19,0,0,1,191.3,81.09Z" transform="translate(0)"/><path class="cls-2" d="M191.3,81.09A110.19,110.19,0,1,1,81.1,191.28,110.19,110.19,0,0,1,191.3,81.09Z" transform="translate(0)"/><path class="cls-3" d="M191.3,81.09a110.19,110.19,0,0,1,2.18,220.36h-4.37a84.58,84.58,0,1,1,4.37,0h-4.37A110.19,110.19,0,0,1,191.3,81.09Z" transform="translate(0)"/><path class="cls-3" d="M101.78,93.67A33.36,33.36,0,1,1,68.42,127h0A33.36,33.36,0,0,1,101.78,93.67Z" transform="translate(0)"/><path class="cls-3" d="M280.81,93.67A33.36,33.36,0,1,0,314.17,127h0a33.35,33.35,0,0,0-33.35-33.35Z" transform="translate(0)"/><path class="cls-4" d="M192.59,272.61c-4.93-2.41-16.67-6.15-16.6-12.1.13-11.36,16.6-8.19,16.6-1.57h0c0-6.62,16.46-9.79,16.59,1.57C209.25,266.51,197.51,270.2,192.59,272.61Z" transform="translate(0)"/><path class="cls-3" d="M148.42,213.65a27.6,27.6,0,0,1,21.44,10.2,27.58,27.58,0,0,1-3.8,3.84,27.62,27.62,0,0,0-35.28,0,27.58,27.58,0,0,1-3.8-3.84A27.57,27.57,0,0,1,148.42,213.65Z" transform="translate(0)"/><path class="cls-3" d="M234.17,213.65a27.57,27.57,0,0,1,21.42,10.2,27.58,27.58,0,0,1-3.8,3.84,27.62,27.62,0,0,0-35.28,0,27,27,0,0,1-3.79-3.84A27.59,27.59,0,0,1,234.17,213.65Z" transform="translate(0)"/><path class="cls-4" d="M132,235.4c12.75,0,12.75,10.21,0,10.21S119.23,235.4,132,235.4Z" transform="translate(0)"/><path class="cls-4" d="M257,235.4c12.75,0,12.75,10.21,0,10.21S244.27,235.4,257,235.4Z" transform="translate(0)"/><path class="cls-5" d="M484,171.93h35.61V137.09l49.85-58.37h-39l-27.68,32.19L475.59,78.74H433l51,58.12v35.07ZM627.65,133.6H596.71L612,101.54Zm18.66,38.33h39L636.59,78.74h-47.9l-46.1,93.19h36.07l7.14-15H639Zm120.62-29.19c34.07,0,44.22-14.27,44.22-31.18v-2c0-17.16-9.77-30.81-44.22-30.81H689.27v93.19h35.58v-29.2Zm-42.08-40.65h37.82c8.4,0,11.78,3.13,11.78,8.51V111c0,5.14-3.63,8.52-11.78,8.52H724.85Zm159.2-25c-60.38,0-68,28.68-68,46.21V127c0,17.41,7.64,46.72,68,46.72h5.63c60.25,0,67.89-29.31,67.89-46.72v-3.76c0-17.53-7.76-46.21-67.89-46.21Zm36.7,48.85c0,10-6.39,22.67-34,22.67s-33.94-13.16-33.94-22.93v-1.54c0-9.89,5.89-22,33.94-22,27.56,0,34,12.15,34,22Zm45.72-47.1V172h35.32V115.44l58.37,56.49h35.57V78.74h-35.32v53l-54.11-53Zm218.32,54.86h-30.94l15.28-32.06ZM1203.45,172h39l-48.72-93.19h-47.85L1099.79,172h36.07l7.14-15h53.23ZM441.52,305.62h34.69V247.5l32.57,58.12h18.16l32.65-58.12v58.12h35.2V212.43H548l-29,52.35-28.56-52.35h-48.9Zm242.37-38.33H653l15.28-32.07Zm18.7,38.33h38.95l-48.72-93.19H644.93l-46.09,93.19h36.07l7.14-15h53.24l7.26,15Zm43,0h34.7V247.5l32.57,58.12H831l32.57-58.12v58.12h35.2V212.43H851.94l-29.06,52.35-28.56-52.35H745.47v93.19ZM988,267.29H957l15.28-32.07Zm18.63,38.33h39l-48.72-93.19H949l-46.1,93.19H939l7.14-15h53.23l7.27,15Z" transform="translate(0)"/></g></g></svg>