<svg width="23" height="26" viewBox="0 0 23 26" fill="none" xmlns="http://www.w3.org/2000/svg">
<path d="M23 22.9531C23 23.5141 22.5233 23.9688 21.9352 23.9688H20.8704V24.9844C20.8704 25.5453 20.3937 26 19.8056 26C19.2175 26 18.7407 25.5453 18.7407 24.9844V23.9688H17.6759C17.0878 23.9688 16.6111 23.5141 16.6111 22.9531C16.6111 22.3922 17.0878 21.9375 17.6759 21.9375H18.7407V20.9219C18.7407 20.3609 19.2175 19.9062 19.8056 19.9062C20.3937 19.9062 20.8704 20.3609 20.8704 20.9219V21.9375H21.9352C22.5233 21.9375 23 22.3922 23 22.9531ZM23 7.10938V16.8594C23 17.4203 22.5233 17.875 21.9352 17.875C21.3471 17.875 20.8704 17.4203 20.8704 16.8594V8.125H18.7407V11.1719C18.7407 11.7328 18.264 12.1875 17.6759 12.1875C17.0878 12.1875 16.6111 11.7328 16.6111 11.1719V8.125H6.38889V11.1719C6.38889 11.7328 5.91217 12.1875 5.32407 12.1875C4.73598 12.1875 4.25926 11.7328 4.25926 11.1719V8.125H2.12963V23.9688H13.4167C14.0048 23.9688 14.4815 24.4234 14.4815 24.9844C14.4815 25.5453 14.0048 26 13.4167 26H1.06481C0.476718 26 0 25.5453 0 24.9844V7.10938C0 6.54845 0.476718 6.09375 1.06481 6.09375H4.30963C4.73262 2.66718 7.79567 0 11.5 0C15.2043 0 18.2674 2.66718 18.6904 6.09375H21.9352C22.5233 6.09375 23 6.54845 23 7.10938ZM16.5397 6.09375C16.133 3.79107 14.028 2.03125 11.5 2.03125C8.97197 2.03125 6.86704 3.79107 6.46029 6.09375H16.5397Z" fill="black"/>
</svg>
