<svg width="32" height="32" viewBox="0 0 32 32" fill="none" xmlns="http://www.w3.org/2000/svg">
<path d="M20.1436 25.1027C19.6785 25.1027 19.2749 24.757 19.2146 24.2836C19.1494 23.7699 19.5127 23.3007 20.0261 23.2353C22.9885 22.8578 25.6414 22.0551 27.4958 20.9745C29.1919 19.9865 30.1257 18.8249 30.1257 17.7038C30.1257 16.4682 29.033 15.4572 28.116 14.8263C27.6894 14.5329 27.5815 13.9494 27.875 13.5226C28.1685 13.0961 28.7522 12.9882 29.1787 13.2817C31.0249 14.5517 32.0007 16.0807 32.0007 17.704C32.0007 19.5463 30.7695 21.2375 28.4399 22.5947C26.343 23.8163 23.5156 24.6811 20.2632 25.0954C20.2229 25.1003 20.1829 25.1027 20.1436 25.1027Z" fill="#D3D3D3"/>
<path d="M15.7715 23.7598L13.2715 21.2598C12.9053 20.8936 12.3118 20.8936 11.9456 21.2598C11.5796 21.6258 11.5796 22.2195 11.9456 22.5855L12.676 23.3159C9.87524 23.0266 7.33081 22.3745 5.3606 21.427C3.14551 20.3618 1.875 19.0047 1.875 17.7039C1.875 16.6006 2.78467 15.4539 4.43628 14.4749C4.88184 14.211 5.02881 13.6358 4.76489 13.1905C4.50073 12.7449 3.92554 12.5979 3.48022 12.8618C0.60376 14.5669 0 16.4361 0 17.7039C0 19.784 1.61523 21.7063 4.5481 23.117C6.82446 24.2114 9.76904 24.9446 12.9771 25.2283L11.9456 26.2598C11.5796 26.6258 11.5796 27.2195 11.9456 27.5857C12.1287 27.7686 12.3687 27.8601 12.6086 27.8601C12.8484 27.8601 13.0884 27.7686 13.2715 27.5857L15.7715 25.0857C16.1375 24.7195 16.1375 24.1258 15.7715 23.7598Z" fill="#D3D3D3"/>
<path d="M9.81811 15.8264V15.6008C9.81811 14.8052 9.33105 14.6509 8.67798 14.6509C8.27417 14.6509 8.14355 14.2947 8.14355 13.9385C8.14355 13.582 8.27417 13.2258 8.67798 13.2258C9.12915 13.2258 9.60425 13.1665 9.60425 12.2046C9.60425 11.5159 9.2124 11.3496 8.72534 11.3496C8.14355 11.3496 7.84668 11.4922 7.84668 11.9553C7.84668 12.3589 7.66846 12.6321 6.97974 12.6321C6.12476 12.6321 6.01807 12.4539 6.01807 11.8838C6.01807 10.9578 6.68286 9.7583 8.72534 9.7583C10.2336 9.7583 11.3735 10.3044 11.3735 11.9077C11.3735 12.7744 11.053 13.582 10.4592 13.8552C11.1599 14.1165 11.6704 14.6389 11.6704 15.6008V15.8264C11.6704 17.7739 10.3286 18.5103 8.66601 18.5103C6.62353 18.5103 5.83984 17.2634 5.83984 16.2659C5.83984 15.7314 6.06543 15.5889 6.71851 15.5889C7.47852 15.5889 7.66846 15.7551 7.66846 16.2065C7.66846 16.7647 8.19116 16.8953 8.72534 16.8953C9.53296 16.8953 9.81811 16.5984 9.81811 15.8264Z" fill="#D3D3D3"/>
<path d="M18.8796 15.6008V15.7078C18.8796 17.7502 17.6089 18.5103 15.9702 18.5103C14.3315 18.5103 13.0488 17.7502 13.0488 15.7078V12.5608C13.0488 10.5183 14.3669 9.7583 16.0771 9.7583C18.084 9.7583 18.8796 11.0051 18.8796 11.9907C18.8796 12.5608 18.6064 12.7388 18.0127 12.7388C17.5022 12.7388 17.0508 12.6082 17.0508 12.062C17.0508 11.6108 16.5759 11.3733 16.0178 11.3733C15.3171 11.3733 14.9014 11.7415 14.9014 12.5608V13.6294C15.2815 13.2139 15.8159 13.1069 16.386 13.1069C17.7395 13.1069 18.8796 13.7007 18.8796 15.6008ZM14.9014 15.8384C14.9014 16.6577 15.3052 17.0139 15.9702 17.0139C16.6353 17.0139 17.0271 16.6577 17.0271 15.8384V15.7314C17.0271 14.8645 16.6353 14.532 15.9583 14.532C15.3171 14.532 14.9014 14.8408 14.9014 15.6245V15.8384Z" fill="#D3D3D3"/>
<path d="M20.3164 15.7078V12.5608C20.3164 10.5183 21.5869 9.7583 23.2258 9.7583C24.8645 9.7583 26.147 10.5183 26.147 12.5608V15.7078C26.147 17.7502 24.8645 18.5103 23.2258 18.5103C21.5869 18.5103 20.3164 17.7502 20.3164 15.7078ZM24.2944 12.5608C24.2944 11.7415 23.8909 11.3733 23.2258 11.3733C22.5608 11.3733 22.1689 11.7415 22.1689 12.5608V15.7078C22.1689 16.5271 22.5608 16.8953 23.2258 16.8953C23.8909 16.8953 24.2944 16.5271 24.2944 15.7078V12.5608Z" fill="#D3D3D3"/>
<path d="M28.3965 9.75C26.8455 9.75 25.584 8.48828 25.584 6.9375C25.584 5.38672 26.8455 4.125 28.3965 4.125C29.9473 4.125 31.209 5.38672 31.209 6.9375C31.209 8.48828 29.9473 9.75 28.3965 9.75ZM28.3965 6C27.8794 6 27.459 6.42065 27.459 6.9375C27.459 7.45459 27.8794 7.875 28.3965 7.875C28.9133 7.875 29.334 7.45459 29.334 6.9375C29.334 6.42065 28.9133 6 28.3965 6Z" fill="#D3D3D3"/>
</svg>
