<svg width="32" height="32" viewBox="0 0 32 32" fill="none" xmlns="http://www.w3.org/2000/svg">
<circle cx="16" cy="16" r="16" fill="#DE3E3E"/>
<path d="M24.75 15.9452C24.75 15.9022 24.75 15.8534 24.748 15.7968C24.7461 15.6386 24.7422 15.4608 24.7383 15.2714C24.7227 14.7264 24.6953 14.1835 24.6523 13.6718C24.5938 12.9667 24.5078 12.3788 24.3906 11.9374C24.267 11.4767 24.0246 11.0566 23.6876 10.719C23.3507 10.3814 22.9311 10.1382 22.4707 10.0135C21.918 9.86511 20.8359 9.77332 19.3125 9.71667C18.5879 9.68933 17.8125 9.67175 17.0371 9.66199C16.7656 9.65808 16.5137 9.65613 16.2871 9.65417H15.7129C15.4863 9.65613 15.2344 9.65808 14.9629 9.66199C14.1875 9.67175 13.4121 9.68933 12.6875 9.71667C11.1641 9.77527 10.0801 9.86707 9.5293 10.0135C9.06875 10.1378 8.64896 10.381 8.312 10.7187C7.97504 11.0563 7.73273 11.4766 7.60938 11.9374C7.49023 12.3788 7.40625 12.9667 7.34766 13.6718C7.30469 14.1835 7.27734 14.7264 7.26172 15.2714C7.25586 15.4608 7.25391 15.6386 7.25195 15.7968C7.25195 15.8534 7.25 15.9022 7.25 15.9452V16.0546C7.25 16.0975 7.25 16.1464 7.25195 16.203C7.25391 16.3612 7.25781 16.5389 7.26172 16.7284C7.27734 17.2733 7.30469 17.8163 7.34766 18.328C7.40625 19.0331 7.49219 19.621 7.60938 20.0624C7.85938 20.9979 8.59375 21.7362 9.5293 21.9862C10.0801 22.1346 11.1641 22.2264 12.6875 22.2831C13.4121 22.3104 14.1875 22.328 14.9629 22.3378C15.2344 22.3417 15.4863 22.3436 15.7129 22.3456H16.2871C16.5137 22.3436 16.7656 22.3417 17.0371 22.3378C17.8125 22.328 18.5879 22.3104 19.3125 22.2831C20.8359 22.2245 21.9199 22.1327 22.4707 21.9862C23.4062 21.7362 24.1406 20.9999 24.3906 20.0624C24.5098 19.621 24.5938 19.0331 24.6523 18.328C24.6953 17.8163 24.7227 17.2733 24.7383 16.7284C24.7441 16.5389 24.7461 16.3612 24.748 16.203C24.748 16.1464 24.75 16.0975 24.75 16.0546V15.9452V15.9452ZM23.3438 16.0468C23.3438 16.0878 23.3438 16.1327 23.3418 16.1854C23.3398 16.3378 23.3359 16.5057 23.332 16.6874C23.3184 17.2069 23.291 17.7264 23.25 18.2089C23.1973 18.8378 23.123 19.3534 23.0312 19.6991C22.9102 20.1503 22.5547 20.5077 22.1055 20.6268C21.6953 20.7362 20.6621 20.8241 19.2578 20.8768C18.5469 20.9042 17.7812 20.9218 17.0176 20.9315C16.75 20.9354 16.502 20.9374 16.2793 20.9374H15.7207L14.9824 20.9315C14.2187 20.9218 13.4551 20.9042 12.7422 20.8768C11.3379 20.8221 10.3027 20.7362 9.89453 20.6268C9.44531 20.5057 9.08984 20.1503 8.96875 19.6991C8.87695 19.3534 8.80273 18.8378 8.75 18.2089C8.70898 17.7264 8.68359 17.2069 8.66797 16.6874C8.66211 16.5057 8.66016 16.3358 8.6582 16.1854C8.6582 16.1327 8.65625 16.0858 8.65625 16.0468V15.953C8.65625 15.912 8.65625 15.8671 8.6582 15.8143C8.66016 15.662 8.66406 15.494 8.66797 15.3124C8.68164 14.7928 8.70898 14.2733 8.75 13.7909C8.80273 13.162 8.87695 12.6464 8.96875 12.3007C9.08984 11.8495 9.44531 11.4921 9.89453 11.3729C10.3047 11.2635 11.3379 11.1757 12.7422 11.1229C13.4531 11.0956 14.2187 11.078 14.9824 11.0682C15.25 11.0643 15.498 11.0624 15.7207 11.0624H16.2793L17.0176 11.0682C17.7812 11.078 18.5449 11.0956 19.2578 11.1229C20.6621 11.1776 21.6973 11.2635 22.1055 11.3729C22.5547 11.494 22.9102 11.8495 23.0312 12.3007C23.123 12.6464 23.1973 13.162 23.25 13.7909C23.291 14.2733 23.3164 14.7928 23.332 15.3124C23.3379 15.494 23.3398 15.6639 23.3418 15.8143C23.3418 15.8671 23.3438 15.9139 23.3438 15.953V16.0468ZM14.2617 18.6171L18.793 15.9803L14.2617 13.3827V18.6171Z" fill="white"/>
</svg>
