<svg width="22" height="27" viewBox="0 0 22 27" fill="none" xmlns="http://www.w3.org/2000/svg">
<path d="M11 13.4436C12.6485 13.4436 14.0758 12.8279 15.2424 11.613C16.4086 10.3984 17 8.91222 17 7.19527C17 5.4789 16.4087 3.99252 15.2422 2.77749C14.0756 1.56306 12.6483 0.947327 11 0.947327C9.35128 0.947327 7.92417 1.56306 6.75781 2.77769C5.59145 3.99233 5 5.47871 5 7.19527C5 8.91222 5.59145 10.3986 6.75781 11.6132C7.92455 12.8277 9.35185 13.4436 11 13.4436ZM7.79018 3.85259C8.68514 2.92059 9.735 2.46755 11 2.46755C12.2648 2.46755 13.3149 2.92059 14.21 3.85259C15.105 4.7848 15.5402 5.87831 15.5402 7.19527C15.5402 8.51262 15.105 9.60593 14.21 10.5381C13.3149 11.4703 12.2648 11.9234 11 11.9234C9.73538 11.9234 8.68552 11.4701 7.79018 10.5381C6.89503 9.60613 6.4598 8.51262 6.4598 7.19527C6.4598 5.87831 6.89503 4.7848 7.79018 3.85259Z" fill="#201E1E"/>
<path d="M21.9467 20.8478C21.9111 20.3432 21.8391 19.7927 21.733 19.2113C21.626 18.6257 21.4882 18.072 21.3232 17.566C21.1526 17.0429 20.9211 16.5264 20.6344 16.0314C20.3372 15.5177 19.988 15.0703 19.5961 14.7022C19.1863 14.3171 18.6845 14.0075 18.1043 13.7816C17.5261 13.5569 16.8854 13.4431 16.1999 13.4431C15.9308 13.4431 15.6704 13.5516 15.1677 13.8731C14.8583 14.0713 14.4963 14.3005 14.0924 14.554C13.7469 14.7702 13.279 14.9727 12.701 15.1561C12.1371 15.3353 11.5645 15.4262 10.9992 15.4262C10.4343 15.4262 9.86172 15.3353 9.2974 15.1561C8.72001 14.9729 8.25186 14.7704 7.90704 14.5542C7.50689 14.3031 7.14476 14.0739 6.83071 13.8729C6.32836 13.5514 6.06804 13.4429 5.79885 13.4429C5.11323 13.4429 4.47267 13.5569 3.89467 13.7818C3.31487 14.0073 2.81292 14.3169 2.40271 14.7024C2.01081 15.0707 1.66156 15.5179 1.36461 16.0314C1.07833 16.5264 0.846572 17.0427 0.67597 17.5662C0.511202 18.0722 0.373393 18.6257 0.266364 19.2113C0.16014 19.7919 0.0883187 20.3426 0.0527096 20.8484C0.017704 21.343 0 21.8577 0 22.3778C0 23.7297 0.43757 24.8242 1.30044 25.6314C2.15264 26.4279 3.28006 26.8318 4.65152 26.8318H17.3485C18.7195 26.8318 19.847 26.4279 20.6994 25.6314C21.5624 24.8248 22 23.7299 22 22.3776C21.9998 21.8558 21.9819 21.341 21.9467 20.8478ZM19.6339 24.5318C19.0708 25.0582 18.3232 25.3141 17.3483 25.3141H4.65152C3.67639 25.3141 2.9288 25.0582 2.36589 24.532C1.81365 24.0157 1.54527 23.3108 1.54527 22.3778C1.54527 21.8925 1.56157 21.4133 1.59416 20.9533C1.62595 20.502 1.69093 20.0063 1.7873 19.4795C1.88246 18.9592 2.00357 18.4709 2.14761 18.0289C2.28582 17.6051 2.47433 17.1854 2.7081 16.7811C2.93121 16.3958 3.18792 16.0652 3.47119 15.7989C3.73614 15.5497 4.0701 15.3458 4.46361 15.1928C4.82755 15.0514 5.23655 14.9739 5.68056 14.9622C5.73468 14.9905 5.83104 15.0444 5.98716 15.1444C6.30483 15.3478 6.67098 15.5797 7.07575 15.8336C7.53203 16.1194 8.11989 16.3774 8.82221 16.6001C9.54023 16.8281 10.2725 16.9439 10.9994 16.9439C11.7263 16.9439 12.4588 16.8281 13.1764 16.6003C13.8793 16.3772 14.467 16.1194 14.9238 15.8332C15.3381 15.5732 15.694 15.3479 16.0116 15.1444C16.1677 15.0446 16.2641 14.9905 16.3182 14.9622C16.7624 14.9739 17.1714 15.0514 17.5356 15.1928C17.9289 15.3458 18.2629 15.5499 18.5278 15.7989C18.8111 16.065 19.0678 16.3956 19.2909 16.7813C19.5249 17.1854 19.7136 17.6053 19.8516 18.0287C19.9958 18.4713 20.1171 18.9594 20.2121 19.4793C20.3083 20.007 20.3734 20.503 20.4052 20.9535V20.9539C20.438 21.4121 20.4545 21.8911 20.4547 22.3778C20.4545 23.311 20.1861 24.0157 19.6339 24.5318Z" fill="#201E1E"/>
</svg>
