<svg width="47" height="58" viewBox="0 0 47 58" fill="none" xmlns="http://www.w3.org/2000/svg">
<path d="M45.1929 0H10.8463C10.6066 0 10.3767 0.0982104 10.2072 0.273026C10.0377 0.447842 9.94245 0.684943 9.94245 0.932169V9.32169H0.903859C0.664141 9.32169 0.434241 9.4199 0.264734 9.59472C0.0952279 9.76953 0 10.0066 0 10.2539V56.8623C0 57.1096 0.0952279 57.3467 0.264734 57.5215C0.434241 57.6963 0.664141 57.7945 0.903859 57.7945H35.2505C35.4902 57.7945 35.7201 57.6963 35.8896 57.5215C36.0591 57.3467 36.1544 57.1096 36.1544 56.8623V48.4728H45.1929C45.4327 48.4728 45.6626 48.3746 45.8321 48.1998C46.0016 48.025 46.0968 47.7879 46.0968 47.5406V0.932169C46.0968 0.684943 46.0016 0.447842 45.8321 0.273026C45.6626 0.0982104 45.4327 0 45.1929 0ZM11.7502 2.271L30.2081 9.32169H11.7502V2.271ZM34.3466 55.9302H1.80772V11.186H34.3466V55.9302ZM44.2891 46.6085H36.1544V10.2539C36.1542 10.0636 36.0976 9.87786 35.9922 9.72167C35.8867 9.56547 35.7376 9.44624 35.5646 9.37995L15.8887 1.86434H44.2891V46.6085Z" fill="#E54343"/>
<path d="M28.9246 48.4727H7.23198C6.99226 48.4727 6.76237 48.5709 6.59286 48.7457C6.42335 48.9205 6.32812 49.1576 6.32812 49.4048C6.32812 49.6521 6.42335 49.8892 6.59286 50.064C6.76237 50.2388 6.99226 50.337 7.23198 50.337H28.9246C29.1643 50.337 29.3942 50.2388 29.5637 50.064C29.7332 49.8892 29.8284 49.6521 29.8284 49.4048C29.8284 49.1576 29.7332 48.9205 29.5637 48.7457C29.3942 48.5709 29.1643 48.4727 28.9246 48.4727Z" fill="#E54343"/>
<path d="M22.5969 51.2695H9.94292C9.7032 51.2695 9.4733 51.3677 9.3038 51.5426C9.13429 51.7174 9.03906 51.9545 9.03906 52.2017C9.03906 52.4489 9.13429 52.686 9.3038 52.8608C9.4733 53.0356 9.7032 53.1338 9.94292 53.1338H22.5969C22.8367 53.1338 23.0666 53.0356 23.2361 52.8608C23.4056 52.686 23.5008 52.4489 23.5008 52.2017C23.5008 51.9545 23.4056 51.7174 23.2361 51.5426C23.0666 51.3677 22.8367 51.2695 22.5969 51.2695Z" fill="#E54343"/>
<path d="M26.212 51.2695H25.3081C25.0684 51.2695 24.8385 51.3677 24.669 51.5426C24.4995 51.7174 24.4043 51.9545 24.4043 52.2017C24.4043 52.4489 24.4995 52.686 24.669 52.8608C24.8385 53.0356 25.0684 53.1338 25.3081 53.1338H26.212C26.4517 53.1338 26.6816 53.0356 26.8511 52.8608C27.0206 52.686 27.1158 52.4489 27.1158 52.2017C27.1158 51.9545 27.0206 51.7174 26.8511 51.5426C26.6816 51.3677 26.4517 51.2695 26.212 51.2695Z" fill="#E54343"/>
<path d="M4.51909 46.6082H31.6348C31.8746 46.6082 32.1045 46.51 32.274 46.3352C32.4435 46.1604 32.5387 45.9233 32.5387 45.676V41.9473C32.5387 41.7001 32.4435 41.463 32.274 41.2882C32.1045 41.1133 31.8746 41.0151 31.6348 41.0151H4.51909C4.27937 41.0151 4.04947 41.1133 3.87997 41.2882C3.71046 41.463 3.61523 41.7001 3.61523 41.9473V45.676C3.61523 45.9233 3.71046 46.1604 3.87997 46.3352C4.04947 46.51 4.27937 46.6082 4.51909 46.6082ZM5.42295 42.8795H30.731V44.7438H5.42295V42.8795Z" fill="#E54343"/>
<mask id="path-6-inside-1" fill="white">
<path d="M12.3021 24.6318L12.8692 24.9245C12.9223 25.3456 13.122 25.7323 13.4311 26.0128C13.7402 26.2932 14.1377 26.4481 14.5494 26.4487H19.9718C20.421 26.4482 20.8517 26.2639 21.1694 25.9363C21.4871 25.6086 21.6658 25.1644 21.6663 24.7011V22.6861C21.7727 22.5877 21.8578 22.4673 21.9162 22.3327C21.9746 22.1981 22.0049 22.0524 22.0052 21.905V20.8564C22.0052 20.5396 21.9218 20.2288 21.7637 19.9571L25.0039 15.8337C25.0442 15.7824 25.0696 15.7204 25.0772 15.6548C25.0847 15.5892 25.0741 15.5228 25.0465 15.4632C25.0189 15.4036 24.9756 15.3533 24.9214 15.318C24.8672 15.2828 24.8045 15.2641 24.7405 15.2642H22.9956C22.9451 15.2642 22.8953 15.2758 22.8497 15.2982C22.8042 15.3206 22.7641 15.3532 22.7323 15.3936L19.8127 19.1088H18.5285L21.1022 15.8337C21.1425 15.7824 21.1679 15.7204 21.1755 15.6549C21.183 15.5893 21.1724 15.5229 21.1449 15.4633C21.1173 15.4037 21.0739 15.3533 21.0198 15.3181C20.9657 15.2829 20.903 15.2642 20.8389 15.2642H19.094C19.0436 15.2642 18.9938 15.2758 18.9482 15.2982C18.9027 15.3206 18.8625 15.3532 18.8308 15.3936L15.9112 19.1088H15.0899C14.557 19.1099 14.0337 19.2545 13.5716 19.5282C13.1095 19.8019 12.7247 20.1953 12.4553 20.6694L11.5963 22.1883C11.4795 22.3947 11.4049 22.6236 11.3773 22.8609C11.3497 23.0982 11.3696 23.3388 11.4357 23.5678C11.5019 23.7968 11.6129 24.0094 11.7619 24.1925C11.9109 24.3755 12.0948 24.525 12.3021 24.6318ZM12.0853 23.3683C12.0151 23.1289 12.0312 22.8715 12.1307 22.6434L14.1773 23.7945L13.8954 24.3032C13.8524 24.3807 13.7822 24.4383 13.6993 24.4642C13.6164 24.49 13.527 24.4822 13.4496 24.4423L12.6051 24.0064C12.4804 23.9429 12.3698 23.8534 12.2804 23.7436C12.1909 23.6337 12.1245 23.506 12.0853 23.3683ZM13.149 20.8484L15.0114 22.5946C14.8201 22.7388 14.6604 22.9229 14.5427 23.1349L14.5136 23.1873L12.467 22.0362L13.0408 21.0215C13.0745 20.962 13.1108 20.9045 13.149 20.8484ZM17.5635 19.8079L18.3914 20.9176L17.5875 21.9406L15.8642 19.8079H17.5635ZM16.9589 22.2545H16.0138C15.9054 22.2546 15.7973 22.2655 15.6909 22.287L13.6146 20.3402C14.0059 20.0198 14.4851 19.8345 14.9842 19.8106L16.9589 22.2545ZM20.9885 24.7011C20.9882 24.9791 20.881 25.2456 20.6904 25.4422C20.4998 25.6388 20.2413 25.7493 19.9718 25.7497H14.5494C14.3619 25.7495 14.1781 25.6959 14.0183 25.5948C13.8585 25.4937 13.7289 25.3491 13.6438 25.1768C13.8156 25.1695 13.9829 25.1174 14.1298 25.0252C14.2767 24.9331 14.3986 24.8039 14.4839 24.65L15.1313 23.4815C15.2204 23.3212 15.3489 23.188 15.5038 23.0953C15.6588 23.0026 15.8347 22.9537 16.0138 22.9535H16.7916L16.7098 23.0576C16.54 23.2737 16.4604 23.5505 16.4885 23.827C16.5166 24.1036 16.6501 24.3574 16.8596 24.5325C17.0691 24.7076 17.3374 24.7897 17.6056 24.7607C17.8738 24.7317 18.1198 24.5941 18.2896 24.378L19.4089 22.9535H20.9885V24.7011ZM21.3274 20.8564V21.905C21.3273 21.9664 21.3116 22.0266 21.2819 22.0798C21.2522 22.133 21.2094 22.1772 21.1579 22.208C21.1065 22.2388 21.048 22.2549 20.9885 22.2545H19.9582L21.2866 20.5641C21.3135 20.659 21.3272 20.7575 21.3274 20.8564ZM23.1571 15.9632H24.0296L17.7629 23.9379C17.7059 24.0086 17.6242 24.0533 17.5355 24.0623C17.4467 24.0713 17.3581 24.0439 17.2889 23.986C17.2196 23.9281 17.1753 23.8444 17.1655 23.753C17.1556 23.6616 17.1811 23.5699 17.2364 23.4978L23.1571 15.9632ZM18.8301 20.3593L18.4187 19.8079H19.2634L18.8301 20.3593ZM19.2556 15.9632H20.1283L17.6563 19.1088H16.7836L19.2556 15.9632Z"/>
</mask>
<path d="M12.3021 24.6318L12.8692 24.9245C12.9223 25.3456 13.122 25.7323 13.4311 26.0128C13.7402 26.2932 14.1377 26.4481 14.5494 26.4487H19.9718C20.421 26.4482 20.8517 26.2639 21.1694 25.9363C21.4871 25.6086 21.6658 25.1644 21.6663 24.7011V22.6861C21.7727 22.5877 21.8578 22.4673 21.9162 22.3327C21.9746 22.1981 22.0049 22.0524 22.0052 21.905V20.8564C22.0052 20.5396 21.9218 20.2288 21.7637 19.9571L25.0039 15.8337C25.0442 15.7824 25.0696 15.7204 25.0772 15.6548C25.0847 15.5892 25.0741 15.5228 25.0465 15.4632C25.0189 15.4036 24.9756 15.3533 24.9214 15.318C24.8672 15.2828 24.8045 15.2641 24.7405 15.2642H22.9956C22.9451 15.2642 22.8953 15.2758 22.8497 15.2982C22.8042 15.3206 22.7641 15.3532 22.7323 15.3936L19.8127 19.1088H18.5285L21.1022 15.8337C21.1425 15.7824 21.1679 15.7204 21.1755 15.6549C21.183 15.5893 21.1724 15.5229 21.1449 15.4633C21.1173 15.4037 21.0739 15.3533 21.0198 15.3181C20.9657 15.2829 20.903 15.2642 20.8389 15.2642H19.094C19.0436 15.2642 18.9938 15.2758 18.9482 15.2982C18.9027 15.3206 18.8625 15.3532 18.8308 15.3936L15.9112 19.1088H15.0899C14.557 19.1099 14.0337 19.2545 13.5716 19.5282C13.1095 19.8019 12.7247 20.1953 12.4553 20.6694L11.5963 22.1883C11.4795 22.3947 11.4049 22.6236 11.3773 22.8609C11.3497 23.0982 11.3696 23.3388 11.4357 23.5678C11.5019 23.7968 11.6129 24.0094 11.7619 24.1925C11.9109 24.3755 12.0948 24.525 12.3021 24.6318ZM12.0853 23.3683C12.0151 23.1289 12.0312 22.8715 12.1307 22.6434L14.1773 23.7945L13.8954 24.3032C13.8524 24.3807 13.7822 24.4383 13.6993 24.4642C13.6164 24.49 13.527 24.4822 13.4496 24.4423L12.6051 24.0064C12.4804 23.9429 12.3698 23.8534 12.2804 23.7436C12.1909 23.6337 12.1245 23.506 12.0853 23.3683ZM13.149 20.8484L15.0114 22.5946C14.8201 22.7388 14.6604 22.9229 14.5427 23.1349L14.5136 23.1873L12.467 22.0362L13.0408 21.0215C13.0745 20.962 13.1108 20.9045 13.149 20.8484ZM17.5635 19.8079L18.3914 20.9176L17.5875 21.9406L15.8642 19.8079H17.5635ZM16.9589 22.2545H16.0138C15.9054 22.2546 15.7973 22.2655 15.6909 22.287L13.6146 20.3402C14.0059 20.0198 14.4851 19.8345 14.9842 19.8106L16.9589 22.2545ZM20.9885 24.7011C20.9882 24.9791 20.881 25.2456 20.6904 25.4422C20.4998 25.6388 20.2413 25.7493 19.9718 25.7497H14.5494C14.3619 25.7495 14.1781 25.6959 14.0183 25.5948C13.8585 25.4937 13.7289 25.3491 13.6438 25.1768C13.8156 25.1695 13.9829 25.1174 14.1298 25.0252C14.2767 24.9331 14.3986 24.8039 14.4839 24.65L15.1313 23.4815C15.2204 23.3212 15.3489 23.188 15.5038 23.0953C15.6588 23.0026 15.8347 22.9537 16.0138 22.9535H16.7916L16.7098 23.0576C16.54 23.2737 16.4604 23.5505 16.4885 23.827C16.5166 24.1036 16.6501 24.3574 16.8596 24.5325C17.0691 24.7076 17.3374 24.7897 17.6056 24.7607C17.8738 24.7317 18.1198 24.5941 18.2896 24.378L19.4089 22.9535H20.9885V24.7011ZM21.3274 20.8564V21.905C21.3273 21.9664 21.3116 22.0266 21.2819 22.0798C21.2522 22.133 21.2094 22.1772 21.1579 22.208C21.1065 22.2388 21.048 22.2549 20.9885 22.2545H19.9582L21.2866 20.5641C21.3135 20.659 21.3272 20.7575 21.3274 20.8564ZM23.1571 15.9632H24.0296L17.7629 23.9379C17.7059 24.0086 17.6242 24.0533 17.5355 24.0623C17.4467 24.0713 17.3581 24.0439 17.2889 23.986C17.2196 23.9281 17.1753 23.8444 17.1655 23.753C17.1556 23.6616 17.1811 23.5699 17.2364 23.4978L23.1571 15.9632ZM18.8301 20.3593L18.4187 19.8079H19.2634L18.8301 20.3593ZM19.2556 15.9632H20.1283L17.6563 19.1088H16.7836L19.2556 15.9632Z" stroke="#E54343" stroke-width="16" mask="url(#path-6-inside-1)"/>
<mask id="path-7-inside-2" fill="white">
<path d="M27.116 29.9436H27.1149C27.1149 29.9399 27.1147 29.936 27.1145 29.933C27.1061 29.0842 26.0848 28.3917 24.0786 27.8745C22.2604 27.4056 19.8481 27.1475 17.2864 27.1475C14.7247 27.1475 12.3127 27.4056 10.4944 27.8745C8.48812 28.3917 7.46675 29.0842 7.45832 29.933C7.45129 30.0831 7.43888 31.1621 8.43563 32.2722C9.10704 33.0199 10.0844 33.6148 11.3407 34.0403C12.4284 34.4089 13.7305 34.6505 15.2277 34.7631V35.1863C15.228 35.4643 15.3353 35.7308 15.5259 35.9273C15.7165 36.1239 15.9749 36.2345 16.2444 36.2348H18.2778C18.5474 36.2345 18.8058 36.1239 18.9964 35.9274C19.187 35.7308 19.2942 35.4643 19.2945 35.1863V34.7669C20.813 34.6559 22.1322 34.413 23.2322 34.0403C24.4885 33.6148 25.4658 33.0199 26.1372 32.2722C27.0893 31.2117 27.1206 30.1805 27.1154 29.9593C27.1155 29.9541 27.116 29.9489 27.116 29.9436ZM10.6587 28.5526C12.4249 28.0973 14.7787 27.8465 17.2864 27.8465C19.7942 27.8465 22.1481 28.0973 23.9143 28.5526C25.7761 29.0326 26.4368 29.602 26.4368 29.9436C26.4368 29.9499 26.4368 29.9549 26.4371 29.9604C26.4224 30.2011 26.0887 30.5477 25.2587 30.8963C24.9592 30.4322 24.1611 30.0591 22.8415 29.7636C21.3467 29.4289 19.3649 29.2445 17.2611 29.2445C15.1573 29.2445 13.1755 29.4289 11.6807 29.7636C10.3779 30.0553 9.58332 30.4228 9.27505 30.8786C8.45664 30.5279 8.13748 30.1808 8.13748 29.9436H8.13608C8.13608 29.602 8.79673 29.0326 10.6587 28.5526ZM24.5672 31.1481C24.3685 31.2113 24.1518 31.2736 23.9155 31.3345C22.1494 31.7899 19.7957 32.0406 17.2878 32.0406C14.78 32.0406 12.4263 31.7899 10.6601 31.3345C10.4086 31.2697 10.1797 31.2032 9.97064 31.1358C10.221 30.9454 10.7817 30.6802 11.8245 30.4467C13.2734 30.1223 15.2042 29.9436 17.2611 29.9436C19.318 29.9436 21.2487 30.1223 22.6975 30.4467C23.7633 30.6853 24.3251 30.9569 24.5672 31.1481ZM18.6167 35.1863C18.6166 35.2789 18.5809 35.3678 18.5174 35.4333C18.4538 35.4988 18.3677 35.5357 18.2778 35.5358H16.2444C16.1546 35.5357 16.0684 35.4988 16.0049 35.4333C15.9414 35.3678 15.9056 35.2789 15.9055 35.1863V34.8046C16.3503 34.8259 16.8106 34.8366 17.2866 34.8368C17.7443 34.8368 18.1877 34.8269 18.6167 34.8071V35.1863ZM25.618 31.8214C23.8698 33.7358 20.1223 34.1377 17.2864 34.1377C12.1485 34.1377 9.91976 32.8781 8.95508 31.8214C8.80955 31.663 8.67824 31.4913 8.56276 31.3085C9.04852 31.5705 9.69293 31.8052 10.496 32.0126C12.3141 32.4815 14.7262 32.7397 17.2878 32.7397C19.8494 32.7397 22.2615 32.4815 24.0799 32.0126C24.8805 31.8063 25.5235 31.5723 26.0088 31.3108C25.8937 31.4928 25.7629 31.6637 25.618 31.8214Z"/>
</mask>
<path d="M27.116 29.9436H35.116V21.9436H27.116V29.9436ZM27.1149 29.9436H19.1149V37.9436H27.1149V29.9436ZM27.1145 29.933L19.1149 30.0129L19.1162 30.1439L19.1218 30.2749L27.1145 29.933ZM24.0786 27.8745L22.0811 35.6211L22.0815 35.6212L24.0786 27.8745ZM10.4944 27.8745L12.4914 35.6212L12.4919 35.6211L10.4944 27.8745ZM7.45832 29.933L15.4496 30.3073L15.4565 30.16L15.4579 30.0125L7.45832 29.933ZM8.43563 32.2722L2.48294 37.6169L2.48341 37.6174L8.43563 32.2722ZM11.3407 34.0403L13.9077 26.4634L13.9075 26.4633L11.3407 34.0403ZM15.2277 34.7631H23.2277V27.3424L15.8279 26.7857L15.2277 34.7631ZM15.2277 35.1863H7.22772L7.22773 35.1953L15.2277 35.1863ZM16.2444 36.2348L16.2348 44.2348H16.2444V36.2348ZM18.2778 36.2348V44.2348L18.2871 44.2348L18.2778 36.2348ZM19.2945 35.1863L27.2945 35.195V35.1863H19.2945ZM19.2945 34.7669L18.7114 26.7881L11.2945 27.3302V34.7669H19.2945ZM23.2322 34.0403L20.6654 26.4633L20.6653 26.4633L23.2322 34.0403ZM26.1372 32.2722L32.0894 37.6174L32.09 37.6167L26.1372 32.2722ZM27.1154 29.9593L19.1164 29.83L19.1138 29.9897L19.1176 30.1493L27.1154 29.9593ZM10.6587 28.5526L8.66157 20.8059L8.66152 20.8059L10.6587 28.5526ZM23.9143 28.5526L25.9117 20.806L25.9115 20.8059L23.9143 28.5526ZM26.4371 29.9604L34.4222 30.4494L34.4542 29.9262L34.4177 29.4032L26.4371 29.9604ZM25.2587 30.8963L18.5373 35.2346L22.174 40.869L28.3568 38.272L25.2587 30.8963ZM22.8415 29.7636L21.0935 37.5703L21.0935 37.5703L22.8415 29.7636ZM11.6807 29.7636L13.4287 37.5703L13.4287 37.5703L11.6807 29.7636ZM9.27505 30.8786L6.12375 38.2318L12.1992 40.8355L15.902 35.3601L9.27505 30.8786ZM8.13748 29.9436H16.1375V21.9436H8.13748V29.9436ZM8.13608 29.9436H0.136082V37.9436H8.13608V29.9436ZM23.9155 31.3345L21.9189 23.5877L21.9183 23.5878L23.9155 31.3345ZM10.6601 31.3345L8.6622 39.081L8.66296 39.0812L10.6601 31.3345ZM9.97064 31.1358L5.12713 24.7687L-7.07518 34.0511L7.51837 38.7507L9.97064 31.1358ZM11.8245 30.4467L13.5723 38.2535L13.5727 38.2534L11.8245 30.4467ZM22.6975 30.4467L20.9491 38.2533L20.9498 38.2535L22.6975 30.4467ZM18.6167 35.1863L26.6167 35.195V35.1863H18.6167ZM18.2778 35.5358V43.5358L18.2871 43.5358L18.2778 35.5358ZM16.2444 35.5358L16.2352 43.5358H16.2444V35.5358ZM15.9055 35.1863H7.90552L7.90553 35.195L15.9055 35.1863ZM15.9055 34.8046L16.2881 26.8138L7.90553 26.4125V34.8046H15.9055ZM17.2866 34.8368L17.2846 42.8368H17.2866V34.8368ZM18.6167 34.8071H26.6167V26.4298L18.2484 26.8156L18.6167 34.8071ZM25.618 31.8214L19.7259 26.41L19.7182 26.4184L19.7105 26.4268L25.618 31.8214ZM8.95508 31.8214L14.8634 26.4277L14.8548 26.4183L14.8461 26.4089L8.95508 31.8214ZM8.56276 31.3085L12.36 24.2671L-14.4924 9.78613L1.79886 35.5805L8.56276 31.3085ZM10.496 32.0126L8.49492 39.7583L8.49824 39.7592L10.496 32.0126ZM24.0799 32.0126L22.0829 24.2659L22.0823 24.266L24.0799 32.0126ZM26.0088 31.3108L32.7689 35.5888L49.1001 9.78217L22.2142 24.268L26.0088 31.3108ZM27.116 21.9436H27.1149V37.9436H27.116V21.9436ZM35.1149 29.9436C35.1149 29.771 35.1092 29.6358 35.1071 29.5878C35.1065 29.5731 35.1059 29.5611 35.1055 29.5534C35.1053 29.5494 35.1052 29.5462 35.1051 29.5441C35.105 29.5421 35.1049 29.5404 35.1049 29.5404C35.1045 29.5329 35.1059 29.5602 35.1072 29.5911L19.1218 30.2749C19.1226 30.2938 19.1234 30.3088 19.1237 30.317C19.124 30.3213 19.1241 30.3248 19.1242 30.3269C19.1243 30.328 19.1243 30.3289 19.1243 30.3294C19.1244 30.3299 19.1244 30.3304 19.1244 30.3304C19.1246 30.334 19.1235 30.3131 19.1224 30.2883C19.1205 30.2438 19.1149 30.1125 19.1149 29.9436H35.1149ZM35.1141 29.8531C35.0733 25.7594 32.4755 23.2701 30.8355 22.1581C29.2227 21.0645 27.4458 20.481 26.0758 20.1278L22.0815 35.6212C22.7176 35.7852 22.4545 35.8066 21.8559 35.4007C21.2302 34.9765 19.1473 33.2579 19.1149 30.0129L35.1141 29.8531ZM26.0762 20.1279C23.4175 19.4423 20.2956 19.1475 17.2864 19.1475V35.1475C19.4007 35.1475 21.1032 35.3689 22.0811 35.6211L26.0762 20.1279ZM17.2864 19.1475C14.2772 19.1475 11.1555 19.4423 8.49685 20.1279L12.4919 35.6211C13.4699 35.3689 15.1722 35.1475 17.2864 35.1475V19.1475ZM8.49734 20.1278C7.1273 20.4809 5.35041 21.0644 3.73759 22.158C2.09764 23.2699 -0.500618 25.7593 -0.541284 29.8535L15.4579 30.0125C15.4257 33.258 13.3423 34.9767 12.7167 35.4009C12.1183 35.8067 11.8552 35.7852 12.4914 35.6212L8.49734 20.1278ZM-0.532915 29.5586C-0.599082 30.9711 -0.393782 34.4129 2.48294 37.6169L14.3883 26.9275C15.2715 27.9112 15.5017 29.1951 15.4496 30.3073L-0.532915 29.5586ZM2.48341 37.6174C4.3204 39.663 6.61891 40.8874 8.77383 41.6174L13.9075 26.4633C13.748 26.4093 13.7381 26.3885 13.8282 26.4434C13.9218 26.5003 14.1371 26.6477 14.3878 26.927L2.48341 37.6174ZM8.77364 41.6173C10.6601 42.2564 12.6564 42.5923 14.6276 42.7406L15.8279 26.7857C14.8046 26.7087 14.1967 26.5613 13.9077 26.4634L8.77364 41.6173ZM7.22772 34.7631V35.1863H23.2277V34.7631H7.22772ZM7.22773 35.1953C7.23035 37.5138 8.1223 39.7842 9.78248 41.4963L21.2692 30.3584C22.5482 31.6774 23.2257 33.4148 23.2277 35.1772L7.22773 35.1953ZM9.78248 41.4963C11.4508 43.2168 13.766 44.2318 16.2348 44.2348L16.254 28.2348C18.1838 28.2371 19.9822 29.031 21.2692 30.3584L9.78248 41.4963ZM16.2444 44.2348H18.2778V28.2348H16.2444V44.2348ZM18.2871 44.2348C20.7561 44.2319 23.0714 43.217 24.7398 41.4963L13.2531 30.3584C14.5402 29.0309 16.3387 28.2371 18.2686 28.2348L18.2871 44.2348ZM24.7398 41.4963C26.4001 39.7841 27.292 37.5135 27.2945 35.195L11.2945 35.1776C11.2965 33.415 11.974 31.6775 13.2531 30.3584L24.7398 41.4963ZM27.2945 35.1863V34.7669H11.2945V35.1863H27.2945ZM19.8776 42.7456C21.872 42.5998 23.8921 42.2634 25.799 41.6174L20.6653 26.4633C20.3723 26.5626 19.754 26.7119 18.7114 26.7881L19.8776 42.7456ZM25.7989 41.6174C27.9539 40.8874 30.2524 39.663 32.0894 37.6174L20.185 26.927C20.4358 26.6477 20.651 26.5003 20.7446 26.4434C20.8348 26.3885 20.8249 26.4093 20.6654 26.4633L25.7989 41.6174ZM32.09 37.6167C34.834 34.5605 35.149 31.2783 35.1131 29.7693L19.1176 30.1493C19.0923 29.0826 19.3447 27.863 20.1844 26.9277L32.09 37.6167ZM35.1143 30.0886C35.1126 30.1925 35.1092 30.2752 35.1072 30.3198C35.1062 30.3426 35.1052 30.3604 35.1048 30.3684C35.1046 30.3724 35.1045 30.3755 35.1044 30.3759C35.1044 30.3775 35.1045 30.3743 35.1046 30.3722C35.105 30.3652 35.1078 30.3123 35.1103 30.246C35.1129 30.1763 35.116 30.0713 35.116 29.9436H19.116C19.116 29.8185 19.119 29.7161 19.1215 29.649C19.1227 29.615 19.124 29.5869 19.1249 29.5676C19.1258 29.549 19.1266 29.5345 19.1268 29.5307C19.1269 29.5292 19.127 29.5267 19.1269 29.529C19.1268 29.53 19.1266 29.5337 19.1264 29.5385C19.1259 29.5477 19.1249 29.5668 19.1238 29.591C19.1217 29.6382 19.1181 29.7235 19.1164 29.83L35.1143 30.0886ZM12.6559 36.2993C13.5777 36.0616 15.2202 35.8465 17.2864 35.8465V19.8465C14.3372 19.8465 11.2721 20.1329 8.66157 20.8059L12.6559 36.2993ZM17.2864 35.8465C19.3527 35.8465 20.9954 36.0617 21.9171 36.2993L25.9115 20.8059C23.3009 20.1329 20.2356 19.8465 17.2864 19.8465V35.8465ZM21.9169 36.2992C22.4225 36.4296 22.2138 36.4414 21.6787 36.1119C21.4161 35.9502 20.8015 35.5402 20.1661 34.78C19.5895 34.09 18.4368 32.4263 18.4368 29.9436H34.4368C34.4368 27.2901 33.2015 25.427 32.4428 24.5193C31.6253 23.5412 30.7292 22.8949 30.0687 22.4881C28.7379 21.6685 27.2679 21.1556 25.9117 20.806L21.9169 36.2992ZM18.4368 29.9436C18.4368 29.9436 18.4368 29.9484 18.4368 29.9538C18.4368 29.9597 18.4368 29.9693 18.4368 29.9811C18.4369 30.0041 18.4372 30.0433 18.438 30.0917C18.4398 30.1927 18.4442 30.34 18.4566 30.5175L34.4177 29.4032C34.4297 29.5753 34.4339 29.7174 34.4356 29.8129C34.437 29.8926 34.4368 29.962 34.4368 29.9436H18.4368ZM18.4521 29.4714C18.5537 27.8123 19.1597 26.5681 19.6417 25.8212C20.1291 25.066 20.6466 24.5687 20.9793 24.2866C21.6259 23.7382 22.132 23.5325 22.1607 23.5205L28.3568 38.272C29.2154 37.9114 30.3033 37.3582 31.328 36.4892C32.0963 35.8376 34.2144 33.8417 34.4222 30.4494L18.4521 29.4714ZM31.9802 26.5579C30.6621 24.5157 28.8425 23.4981 27.8256 23.0218C26.6975 22.4936 25.5504 22.1721 24.5895 21.9569L21.0935 37.5703C21.4522 37.6506 21.364 37.6634 21.0398 37.5116C20.862 37.4283 20.512 37.2487 20.0906 36.9275C19.6684 36.6057 19.0723 36.0635 18.5373 35.2346L31.9802 26.5579ZM24.5895 21.9569C22.3532 21.4562 19.7517 21.2445 17.2611 21.2445V37.2445C18.9781 37.2445 20.3403 37.4016 21.0935 37.5703L24.5895 21.9569ZM17.2611 21.2445C14.7705 21.2445 12.169 21.4562 9.93265 21.9569L13.4287 37.5703C14.1819 37.4016 15.544 37.2445 17.2611 37.2445V21.2445ZM9.93271 21.9569C8.98193 22.1698 7.85344 22.4859 6.74236 23.0005C5.7382 23.4657 3.96844 24.4447 2.64812 26.3971L15.902 35.3601C15.3693 36.1478 14.7891 36.6611 14.3817 36.9651C13.9742 37.2692 13.6381 37.4395 13.4675 37.5186C13.1564 37.6626 13.0766 37.6491 13.4287 37.5703L9.93271 21.9569ZM12.4263 23.5254C12.4671 23.5429 13.0095 23.7689 13.6848 24.3632C14.0323 24.669 14.5734 25.211 15.0651 26.0328C15.5557 26.8528 16.1375 28.1965 16.1375 29.9436H0.13748C0.13748 33.5302 2.3392 35.692 3.11391 36.3739C4.15337 37.2887 5.26462 37.8636 6.12375 38.2318L12.4263 23.5254ZM8.13748 21.9436H8.13608V37.9436H8.13748V21.9436ZM16.1361 29.9436C16.1361 32.4263 14.9834 34.0901 14.4067 34.78C13.7712 35.5403 13.1566 35.9503 12.894 36.112C12.3589 36.4415 12.1502 36.4297 12.656 36.2993L8.66152 20.8059C7.30523 21.1556 5.8352 21.6684 4.5043 22.488C3.8438 22.8948 2.94762 23.5411 2.1301 24.5192C1.37138 25.427 0.136082 27.29 0.136082 29.9436H16.1361ZM22.1446 23.5238C22.096 23.5392 22.0218 23.5612 21.9189 23.5877L25.9121 39.0814C26.2818 38.9861 26.6411 38.8833 26.9899 38.7725L22.1446 23.5238ZM21.9183 23.5878C20.9965 23.8255 19.3542 24.0406 17.2878 24.0406V40.0407C20.2372 40.0407 23.3022 39.7543 25.9127 39.0812L21.9183 23.5878ZM17.2878 24.0406C15.2215 24.0406 13.5791 23.8255 12.6573 23.5878L8.66296 39.0812C11.2735 39.7543 14.3384 40.0407 17.2878 40.0407V24.0406ZM12.6581 23.588C12.5501 23.5602 12.4732 23.5372 12.4229 23.521L7.51837 38.7507C7.88622 38.8692 8.26702 38.9791 8.6622 39.081L12.6581 23.588ZM14.8141 37.503C14.4609 37.7717 14.1612 37.9453 13.973 38.0454C13.7751 38.1505 13.6246 38.2143 13.5409 38.2474C13.3791 38.3114 13.3687 38.299 13.5723 38.2535L10.0766 22.64C8.62218 22.9656 6.73637 23.5446 5.12713 24.7687L14.8141 37.503ZM13.5727 38.2534C14.2758 38.0959 15.585 37.9436 17.2611 37.9436V21.9436C14.8233 21.9436 12.271 22.1486 10.0762 22.6401L13.5727 38.2534ZM17.2611 37.9436C18.9372 37.9436 20.2463 38.0959 20.9491 38.2533L24.4459 22.6401C22.2512 22.1486 19.6988 21.9436 17.2611 21.9436V37.9436ZM20.9498 38.2535C21.1589 38.3003 21.1429 38.3121 20.9693 38.2427C20.8796 38.2068 20.7186 38.1375 20.5079 38.0232C20.3087 37.9151 19.9858 37.724 19.6079 37.4255L29.5266 24.8708C27.8714 23.5631 25.9064 22.9671 24.4453 22.64L20.9498 38.2535ZM10.6167 35.1776C10.6189 33.2297 11.3678 31.3145 12.774 29.8643L24.2607 41.0023C25.794 39.421 26.6144 37.3282 26.6167 35.195L10.6167 35.1776ZM12.774 29.8643C14.1883 28.4058 16.1591 27.5382 18.2686 27.5358L18.2871 43.5358C20.5763 43.5331 22.7194 42.5919 24.2607 41.0023L12.774 29.8643ZM18.2778 27.5358H16.2444V43.5358H18.2778V27.5358ZM16.2537 27.5358C18.3632 27.5382 20.334 28.4058 21.7483 29.8643L10.2615 41.0023C11.8028 42.5919 13.9459 43.5331 16.2352 43.5358L16.2537 27.5358ZM21.7483 29.8643C23.1544 31.3145 23.9034 33.2297 23.9055 35.1776L7.90553 35.195C7.90785 37.3282 8.72832 39.4211 10.2615 41.0023L21.7483 29.8643ZM23.9055 35.1863V34.8046H7.90553V35.1863H23.9055ZM15.523 42.7955C16.1028 42.8233 16.6904 42.8366 17.2846 42.8368L17.2885 26.8368C16.9309 26.8367 16.5977 26.8286 16.2881 26.8138L15.523 42.7955ZM17.2866 42.8368C17.8592 42.8368 18.4257 42.8244 18.9851 42.7986L18.2484 26.8156C17.9498 26.8293 17.6294 26.8368 17.2866 26.8368V42.8368ZM10.6167 34.8071V35.1863H26.6167V34.8071H10.6167ZM19.7105 26.4268C20.1331 25.9641 20.4901 25.791 20.5249 25.7743C20.5621 25.7565 20.4426 25.8164 20.1037 25.8927C19.394 26.0524 18.3982 26.1377 17.2864 26.1377V42.1377C19.0105 42.1377 21.3064 42.0221 23.6165 41.5023C25.7439 41.0235 29.0221 39.9573 31.5254 37.216L19.7105 26.4268ZM17.2864 26.1377C15.3364 26.1377 14.405 25.8944 14.1217 25.7985C13.8861 25.7187 14.3038 25.8147 14.8634 26.4277L3.04681 37.2151C6.15496 40.6198 11.0403 42.1377 17.2864 42.1377V26.1377ZM14.8461 26.4089C15.0269 26.6056 15.1874 26.816 15.3267 27.0365L1.79886 35.5805C2.16913 36.1667 2.5922 36.7204 3.06403 37.2339L14.8461 26.4089ZM4.76549 38.3499C6.02695 39.0301 7.34623 39.4616 8.49492 39.7583L12.497 24.267C12.3984 24.2415 12.3203 24.2192 12.2607 24.201C12.2009 24.1827 12.1643 24.17 12.1483 24.1641C12.1319 24.1581 12.1424 24.1614 12.1755 24.1759C12.2082 24.1903 12.2719 24.2196 12.36 24.2671L4.76549 38.3499ZM8.49824 39.7592C11.1569 40.4448 14.2788 40.7397 17.2878 40.7397V24.7397C15.1736 24.7397 13.4713 24.5182 12.4937 24.2661L8.49824 39.7592ZM17.2878 40.7397C20.2969 40.7397 23.4187 40.4448 26.0774 39.7593L22.0823 24.266C21.1044 24.5182 19.4019 24.7397 17.2878 24.7397V40.7397ZM26.0769 39.7594C27.2249 39.4634 28.5427 39.0329 29.8034 38.3536L22.2142 24.268C22.3022 24.2206 22.366 24.1913 22.3989 24.1768C22.4323 24.1622 22.4431 24.1588 22.4273 24.1645C22.4118 24.1702 22.3759 24.1827 22.3168 24.2007C22.2579 24.2187 22.1806 24.2407 22.0829 24.2659L26.0769 39.7594ZM19.2487 27.0328C19.3872 26.814 19.5465 26.6053 19.7259 26.41L31.51 37.2329C31.9792 36.722 32.4001 36.1715 32.7689 35.5888L19.2487 27.0328Z" fill="#E54343" mask="url(#path-7-inside-2)"/>
<mask id="path-9-inside-3" fill="white">
<path d="M12.3577 24.6318L12.9314 24.9245C12.9851 25.3456 13.1871 25.7323 13.4998 26.0128C13.8124 26.2932 14.2144 26.4481 14.6309 26.4487H20.1156C20.57 26.4482 21.0057 26.2639 21.327 25.9363C21.6483 25.6086 21.8291 25.1644 21.8296 24.7011V22.6861C21.9372 22.5877 22.0233 22.4673 22.0824 22.3327C22.1414 22.1981 22.1721 22.0524 22.1724 21.905V20.8564C22.1724 20.5396 22.088 20.2288 21.9281 19.9571L25.2056 15.8337C25.2463 15.7824 25.272 15.7204 25.2797 15.6548C25.2873 15.5892 25.2765 15.5228 25.2486 15.4632C25.2208 15.4036 25.1769 15.3533 25.1221 15.318C25.0673 15.2828 25.0039 15.2641 24.9391 15.2642H23.1742C23.1231 15.2642 23.0727 15.2758 23.0266 15.2982C22.9806 15.3206 22.94 15.3532 22.9078 15.3936L19.9547 19.1088H18.6557L21.259 15.8337C21.2998 15.7824 21.3255 15.7204 21.3331 15.6549C21.3408 15.5893 21.33 15.5229 21.3022 15.4633C21.2743 15.4037 21.2304 15.3533 21.1757 15.3181C21.1209 15.2829 21.0575 15.2642 20.9927 15.2642H19.2278C19.1767 15.2642 19.1263 15.2758 19.0803 15.2982C19.0342 15.3206 18.9936 15.3532 18.9615 15.3936L16.0083 19.1088H15.1776C14.6386 19.1099 14.1093 19.2545 13.6419 19.5282C13.1745 19.8019 12.7853 20.1953 12.5128 20.6694L11.6439 22.1883C11.5257 22.3947 11.4503 22.6236 11.4224 22.8609C11.3944 23.0982 11.4145 23.3388 11.4814 23.5678C11.5484 23.7968 11.6606 24.0094 11.8114 24.1925C11.9621 24.3755 12.1481 24.525 12.3577 24.6318ZM12.1385 23.3683C12.0675 23.1289 12.0838 22.8715 12.1844 22.6434L14.2546 23.7945L13.9694 24.3032C13.9259 24.3807 13.8549 24.4383 13.771 24.4642C13.6872 24.49 13.5968 24.4822 13.5184 24.4423L12.6643 24.0064C12.5381 23.9429 12.4263 23.8534 12.3358 23.7436C12.2453 23.6337 12.1781 23.506 12.1385 23.3683ZM13.2144 20.8484L15.0982 22.5946C14.9048 22.7388 14.7432 22.9229 14.6242 23.1349L14.5947 23.1873L12.5246 22.0362L13.105 21.0215C13.1391 20.962 13.1758 20.9045 13.2144 20.8484ZM17.6797 19.8079L18.5171 20.9176L17.7039 21.9406L15.9609 19.8079H17.6797ZM17.0681 22.2545H16.1122C16.0025 22.2546 15.8932 22.2655 15.7856 22.287L13.6854 20.3402C14.0812 20.0198 14.5659 19.8345 15.0708 19.8106L17.0681 22.2545ZM21.144 24.7011C21.1437 24.9791 21.0352 25.2456 20.8424 25.4422C20.6496 25.6388 20.3883 25.7493 20.1156 25.7497H14.6309C14.4413 25.7495 14.2554 25.6959 14.0938 25.5948C13.9321 25.4937 13.801 25.3491 13.7149 25.1768C13.8887 25.1695 14.0579 25.1174 14.2065 25.0252C14.3551 24.9331 14.4784 24.8039 14.5647 24.65L15.2195 23.4815C15.3096 23.3212 15.4396 23.188 15.5963 23.0953C15.753 23.0026 15.931 22.9537 16.1122 22.9535H16.8989L16.8161 23.0576C16.6444 23.2737 16.5639 23.5505 16.5923 23.827C16.6207 24.1036 16.7557 24.3574 16.9676 24.5325C17.1795 24.7076 17.451 24.7897 17.7222 24.7607C17.9935 24.7317 18.2424 24.5941 18.4141 24.378L19.5463 22.9535H21.144V24.7011ZM21.4868 20.8564V21.905C21.4867 21.9664 21.4708 22.0266 21.4408 22.0798C21.4107 22.133 21.3675 22.1772 21.3154 22.208C21.2633 22.2388 21.2042 22.2549 21.144 22.2545H20.1019L21.4455 20.5641C21.4727 20.659 21.4866 20.7575 21.4868 20.8564ZM23.3375 15.9632H24.22L17.8813 23.9379C17.8237 24.0086 17.741 24.0533 17.6513 24.0623C17.5615 24.0713 17.4719 24.0439 17.4019 23.986C17.3318 23.9281 17.287 23.8444 17.277 23.753C17.2671 23.6616 17.2929 23.5699 17.3488 23.4978L23.3375 15.9632ZM18.9608 20.3593L18.5447 19.8079H19.3991L18.9608 20.3593ZM19.3912 15.9632H20.2739L17.7735 19.1088H16.8908L19.3912 15.9632Z"/>
</mask>
<path d="M12.3577 24.6318L12.9314 24.9245C12.9851 25.3456 13.1871 25.7323 13.4998 26.0128C13.8124 26.2932 14.2144 26.4481 14.6309 26.4487H20.1156C20.57 26.4482 21.0057 26.2639 21.327 25.9363C21.6483 25.6086 21.8291 25.1644 21.8296 24.7011V22.6861C21.9372 22.5877 22.0233 22.4673 22.0824 22.3327C22.1414 22.1981 22.1721 22.0524 22.1724 21.905V20.8564C22.1724 20.5396 22.088 20.2288 21.9281 19.9571L25.2056 15.8337C25.2463 15.7824 25.272 15.7204 25.2797 15.6548C25.2873 15.5892 25.2765 15.5228 25.2486 15.4632C25.2208 15.4036 25.1769 15.3533 25.1221 15.318C25.0673 15.2828 25.0039 15.2641 24.9391 15.2642H23.1742C23.1231 15.2642 23.0727 15.2758 23.0266 15.2982C22.9806 15.3206 22.94 15.3532 22.9078 15.3936L19.9547 19.1088H18.6557L21.259 15.8337C21.2998 15.7824 21.3255 15.7204 21.3331 15.6549C21.3408 15.5893 21.33 15.5229 21.3022 15.4633C21.2743 15.4037 21.2304 15.3533 21.1757 15.3181C21.1209 15.2829 21.0575 15.2642 20.9927 15.2642H19.2278C19.1767 15.2642 19.1263 15.2758 19.0803 15.2982C19.0342 15.3206 18.9936 15.3532 18.9615 15.3936L16.0083 19.1088H15.1776C14.6386 19.1099 14.1093 19.2545 13.6419 19.5282C13.1745 19.8019 12.7853 20.1953 12.5128 20.6694L11.6439 22.1883C11.5257 22.3947 11.4503 22.6236 11.4224 22.8609C11.3944 23.0982 11.4145 23.3388 11.4814 23.5678C11.5484 23.7968 11.6606 24.0094 11.8114 24.1925C11.9621 24.3755 12.1481 24.525 12.3577 24.6318ZM12.1385 23.3683C12.0675 23.1289 12.0838 22.8715 12.1844 22.6434L14.2546 23.7945L13.9694 24.3032C13.9259 24.3807 13.8549 24.4383 13.771 24.4642C13.6872 24.49 13.5968 24.4822 13.5184 24.4423L12.6643 24.0064C12.5381 23.9429 12.4263 23.8534 12.3358 23.7436C12.2453 23.6337 12.1781 23.506 12.1385 23.3683ZM13.2144 20.8484L15.0982 22.5946C14.9048 22.7388 14.7432 22.9229 14.6242 23.1349L14.5947 23.1873L12.5246 22.0362L13.105 21.0215C13.1391 20.962 13.1758 20.9045 13.2144 20.8484ZM17.6797 19.8079L18.5171 20.9176L17.7039 21.9406L15.9609 19.8079H17.6797ZM17.0681 22.2545H16.1122C16.0025 22.2546 15.8932 22.2655 15.7856 22.287L13.6854 20.3402C14.0812 20.0198 14.5659 19.8345 15.0708 19.8106L17.0681 22.2545ZM21.144 24.7011C21.1437 24.9791 21.0352 25.2456 20.8424 25.4422C20.6496 25.6388 20.3883 25.7493 20.1156 25.7497H14.6309C14.4413 25.7495 14.2554 25.6959 14.0938 25.5948C13.9321 25.4937 13.801 25.3491 13.7149 25.1768C13.8887 25.1695 14.0579 25.1174 14.2065 25.0252C14.3551 24.9331 14.4784 24.8039 14.5647 24.65L15.2195 23.4815C15.3096 23.3212 15.4396 23.188 15.5963 23.0953C15.753 23.0026 15.931 22.9537 16.1122 22.9535H16.8989L16.8161 23.0576C16.6444 23.2737 16.5639 23.5505 16.5923 23.827C16.6207 24.1036 16.7557 24.3574 16.9676 24.5325C17.1795 24.7076 17.451 24.7897 17.7222 24.7607C17.9935 24.7317 18.2424 24.5941 18.4141 24.378L19.5463 22.9535H21.144V24.7011ZM21.4868 20.8564V21.905C21.4867 21.9664 21.4708 22.0266 21.4408 22.0798C21.4107 22.133 21.3675 22.1772 21.3154 22.208C21.2633 22.2388 21.2042 22.2549 21.144 22.2545H20.1019L21.4455 20.5641C21.4727 20.659 21.4866 20.7575 21.4868 20.8564ZM23.3375 15.9632H24.22L17.8813 23.9379C17.8237 24.0086 17.741 24.0533 17.6513 24.0623C17.5615 24.0713 17.4719 24.0439 17.4019 23.986C17.3318 23.9281 17.287 23.8444 17.277 23.753C17.2671 23.6616 17.2929 23.5699 17.3488 23.4978L23.3375 15.9632ZM18.9608 20.3593L18.5447 19.8079H19.3991L18.9608 20.3593ZM19.3912 15.9632H20.2739L17.7735 19.1088H16.8908L19.3912 15.9632Z" stroke="#E54343" stroke-width="16" mask="url(#path-9-inside-3)"/>
<mask id="path-10-inside-4" fill="white">
<path d="M27.3419 29.9436H27.3408C27.3408 29.9399 27.3406 29.936 27.3405 29.933C27.3319 29.0842 26.2989 28.3917 24.2697 27.8745C22.4305 27.4056 19.9906 27.1475 17.3994 27.1475C14.8082 27.1475 12.3685 27.4056 10.5293 27.8745C8.49997 28.3917 7.46686 29.0842 7.45834 29.933C7.45122 30.0831 7.43867 31.1621 8.44688 32.2722C9.126 33.0199 10.1146 33.6148 11.3853 34.0403C12.4855 34.4089 13.8026 34.6505 15.317 34.7631V35.1863C15.3174 35.4643 15.4258 35.7308 15.6186 35.9273C15.8114 36.1239 16.0728 36.2345 16.3454 36.2348H18.4022C18.6749 36.2345 18.9363 36.1239 19.1291 35.9274C19.3218 35.7308 19.4303 35.4643 19.4306 35.1863V34.7669C20.9665 34.6559 22.3009 34.413 23.4135 34.0403C24.6842 33.6148 25.6728 33.0199 26.3519 32.2722C27.315 31.2117 27.3466 30.1805 27.3413 29.9593C27.3414 29.9541 27.3419 29.9489 27.3419 29.9436ZM10.6955 28.5526C12.482 28.0973 14.8628 27.8465 17.3994 27.8465C19.936 27.8465 22.317 28.0973 24.1034 28.5526C25.9867 29.0326 26.6549 29.602 26.6549 29.9436C26.6549 29.9499 26.6549 29.9549 26.6553 29.9604C26.6404 30.2011 26.3028 30.5477 25.4634 30.8963C25.1604 30.4322 24.3531 30.0591 23.0184 29.7636C21.5064 29.4289 19.5018 29.2445 17.3738 29.2445C15.2458 29.2445 13.2412 29.4289 11.7292 29.7636C10.4114 30.0553 9.60776 30.4228 9.29594 30.8786C8.46813 30.5279 8.1453 30.1808 8.1453 29.9436H8.14389C8.14389 29.602 8.81213 29.0326 10.6955 28.5526ZM24.7639 31.1481C24.5629 31.2113 24.3437 31.2736 24.1047 31.3345C22.3182 31.7899 19.9375 32.0406 17.4008 32.0406C14.8641 32.0406 12.4834 31.7899 10.697 31.3345C10.4425 31.2697 10.211 31.2032 9.99953 31.1358C10.2528 30.9454 10.8199 30.6802 11.8747 30.4467C13.3403 30.1223 15.2932 29.9436 17.3738 29.9436C19.4543 29.9436 21.4073 30.1223 22.8727 30.4467C23.9507 30.6853 24.519 30.9569 24.7639 31.1481ZM18.745 35.1863C18.7449 35.2789 18.7088 35.3678 18.6445 35.4333C18.5802 35.4988 18.4931 35.5357 18.4022 35.5358H16.3454C16.2545 35.5357 16.1674 35.4988 16.1031 35.4333C16.0389 35.3678 16.0027 35.2789 16.0026 35.1863V34.8046C16.4525 34.8259 16.9181 34.8366 17.3995 34.8368C17.8626 34.8368 18.3111 34.8269 18.745 34.8071V35.1863ZM25.8267 31.8214C24.0584 33.7358 20.2679 34.1377 17.3994 34.1377C12.2024 34.1377 9.94807 32.8781 8.9723 31.8214C8.8251 31.663 8.69228 31.4913 8.57547 31.3085C9.06681 31.5705 9.71862 31.8052 10.5309 32.0126C12.3699 32.4815 14.8098 32.7397 17.4008 32.7397C19.9918 32.7397 22.4317 32.4815 24.2709 32.0126C25.0808 31.8063 25.7311 31.5723 26.222 31.3108C26.1056 31.4928 25.9733 31.6637 25.8267 31.8214Z"/>
</mask>
<path d="M27.3419 29.9436H35.3419V21.9436H27.3419V29.9436ZM27.3408 29.9436H19.3408V37.9436H27.3408V29.9436ZM27.3405 29.933L19.3409 30.0138L19.3422 30.1464L19.3479 30.2788L27.3405 29.933ZM24.2697 27.8745L22.2934 35.6265L22.2938 35.6267L24.2697 27.8745ZM10.5293 27.8745L12.505 35.6267L12.5055 35.6266L10.5293 27.8745ZM7.45834 29.933L15.4494 30.3116L15.4564 30.1626L15.4579 30.0134L7.45834 29.933ZM8.44688 32.2722L2.52467 37.6506L2.52514 37.6511L8.44688 32.2722ZM11.3853 34.0403L13.9261 26.4545L13.9259 26.4545L11.3853 34.0403ZM15.317 34.7631H23.317V27.336L15.9104 26.7852L15.317 34.7631ZM15.317 35.1863H7.31703L7.31704 35.1954L15.317 35.1863ZM16.3454 36.2348L16.3359 44.2348H16.3454V36.2348ZM18.4022 36.2348V44.2348L18.4114 44.2348L18.4022 36.2348ZM19.4306 35.1863L27.4306 35.1951V35.1863H19.4306ZM19.4306 34.7669L18.8541 26.7877L11.4306 27.324V34.7669H19.4306ZM23.4135 34.0403L20.8729 26.4545L20.8728 26.4545L23.4135 34.0403ZM26.3519 32.2722L32.2737 37.6511L32.2743 37.6505L26.3519 32.2722ZM27.3413 29.9593L19.3424 29.8285L19.3397 29.99L19.3436 30.1514L27.3413 29.9593ZM10.6955 28.5526L8.71967 20.8004L8.71962 20.8004L10.6955 28.5526ZM24.1034 28.5526L26.0795 20.8005L26.0793 20.8004L24.1034 28.5526ZM26.6553 29.9604L34.64 30.455L34.6728 29.9258L34.6354 29.3969L26.6553 29.9604ZM25.4634 30.8963L18.7646 35.2697L22.3962 40.8322L28.5314 38.2846L25.4634 30.8963ZM23.0184 29.7636L21.2893 37.5745L21.2893 37.5745L23.0184 29.7636ZM11.7292 29.7636L13.4583 37.5745L13.4584 37.5745L11.7292 29.7636ZM9.29594 30.8786L6.17498 38.2447L12.2029 40.7987L15.899 35.3953L9.29594 30.8786ZM8.1453 29.9436H16.1453V21.9436H8.1453V29.9436ZM8.14389 29.9436H0.143887V37.9436H8.14389V29.9436ZM24.1047 31.3345L22.1293 23.5823L22.1288 23.5824L24.1047 31.3345ZM10.697 31.3345L8.72032 39.0865L8.72108 39.0867L10.697 31.3345ZM9.99953 31.1358L5.1911 24.7422L-7.19489 34.0572L7.57255 38.7588L9.99953 31.1358ZM11.8747 30.4467L13.6036 38.2577L13.604 38.2576L11.8747 30.4467ZM22.8727 30.4467L21.1432 38.2576L21.1439 38.2577L22.8727 30.4467ZM18.745 35.1863L26.745 35.1951V35.1863H18.745ZM18.4022 35.5358V43.5358L18.4114 43.5358L18.4022 35.5358ZM16.3454 35.5358L16.3363 43.5358H16.3454V35.5358ZM16.0026 35.1863H8.00263L8.00264 35.1951L16.0026 35.1863ZM16.0026 34.8046L16.3808 26.8136L8.00263 26.4171V34.8046H16.0026ZM17.3995 34.8368L17.3976 42.8368H17.3995V34.8368ZM18.745 34.8071H26.745V26.4342L18.3808 26.8154L18.745 34.8071ZM25.8267 31.8214L19.9656 26.3765L19.9578 26.3849L19.9501 26.3933L25.8267 31.8214ZM8.9723 31.8214L14.8498 26.3941L14.8411 26.3848L14.8324 26.3754L8.9723 31.8214ZM8.57547 31.3085L12.3392 24.2492L-14.6046 9.88402L1.83376 35.6154L8.57547 31.3085ZM10.5309 32.0126L8.55119 39.7638L8.55447 39.7647L10.5309 32.0126ZM24.2709 32.0126L22.2953 24.2604L22.2947 24.2606L24.2709 32.0126ZM26.222 31.3108L32.9599 35.6237L49.4385 9.87996L22.461 24.2501L26.222 31.3108ZM27.3419 21.9436H27.3408V37.9436H27.3419V21.9436ZM35.3408 29.9436C35.3408 29.7691 35.335 29.6324 35.3329 29.5838C35.3322 29.5689 35.3316 29.5568 35.3312 29.549C35.331 29.545 35.3309 29.5417 35.3308 29.5396C35.3307 29.5376 35.3306 29.5359 35.3306 29.5359C35.3302 29.5283 35.3316 29.5559 35.333 29.5872L19.3479 30.2788C19.3488 30.2979 19.3495 30.3131 19.3499 30.3214C19.3501 30.3257 19.3503 30.3293 19.3504 30.3314C19.3504 30.3325 19.3505 30.3334 19.3505 30.3339C19.3505 30.3344 19.3506 30.3349 19.3506 30.3349C19.3507 30.3385 19.3497 30.3174 19.3486 30.2923C19.3466 30.2473 19.3408 30.1144 19.3408 29.9436H35.3408ZM35.3401 29.8522C35.2983 25.7165 32.6482 23.2276 31.0174 22.1344C29.4017 21.0512 27.6217 20.4731 26.2455 20.1223L22.2938 35.6267C22.9468 35.7931 22.698 35.8198 22.1082 35.4244C21.5034 35.019 19.3741 33.3008 19.3409 30.0138L35.3401 29.8522ZM26.246 20.1224C23.5746 19.4414 20.4326 19.1475 17.3994 19.1475V35.1475C19.5485 35.1475 21.2864 35.3698 22.2934 35.6265L26.246 20.1224ZM17.3994 19.1475C14.3661 19.1475 11.2244 19.4414 8.55306 20.1224L12.5055 35.6266C13.5127 35.3698 15.2504 35.1475 17.3994 35.1475V19.1475ZM8.55355 20.1223C7.17733 20.473 5.39734 21.0512 3.78157 22.1343C2.15092 23.2273 -0.499705 25.7164 -0.54126 29.8526L15.4579 30.0134C15.4249 33.3009 13.2951 35.0192 12.6905 35.4246C12.1007 35.8199 11.8519 35.7931 12.505 35.6267L8.55355 20.1223ZM-0.532698 29.5544C-0.600687 30.9892 -0.385184 34.4466 2.52467 37.6506L14.3691 26.8938C15.2625 27.8775 15.5031 29.177 15.4494 30.3116L-0.532698 29.5544ZM2.52514 37.6511C4.37612 39.6889 6.68585 40.9032 8.84468 41.6262L13.9259 26.4545C13.7552 26.3973 13.736 26.3724 13.819 26.4224C13.9052 26.4743 14.1176 26.617 14.3686 26.8933L2.52514 37.6511ZM8.84449 41.6261C10.7366 42.2599 12.741 42.5936 14.7237 42.7411L15.9104 26.7852C14.8643 26.7074 14.2345 26.5578 13.9261 26.4545L8.84449 41.6261ZM7.31704 34.7631V35.1863H23.317V34.7631H7.31704ZM7.31704 35.1954C7.31972 37.5425 8.23395 39.8231 9.90713 41.5291L21.3301 30.3256C22.6177 31.6385 23.315 33.3861 23.317 35.1771L7.31704 35.1954ZM9.90713 41.5291C11.5854 43.2403 13.8942 44.2319 16.3359 44.2348L16.3549 28.2348C18.2513 28.2371 20.0373 29.0076 21.3301 30.3256L9.90713 41.5291ZM16.3454 44.2348H18.4022V28.2348H16.3454V44.2348ZM18.4114 44.2348C20.8532 44.232 23.1621 43.2404 24.8405 41.5291L13.4176 30.3256C14.7104 29.0075 16.4966 28.237 18.393 28.2348L18.4114 44.2348ZM24.8405 41.5291C26.5138 39.823 27.428 37.5422 27.4306 35.1951L11.4306 35.1775C11.4326 33.3863 12.1299 31.6386 13.4176 30.3256L24.8405 41.5291ZM27.4306 35.1863V34.7669H11.4306V35.1863H27.4306ZM20.0071 42.7461C22.0132 42.6011 24.0415 42.2668 25.9541 41.6262L20.8728 26.4545C20.5603 26.5592 19.9198 26.7107 18.8541 26.7877L20.0071 42.7461ZM25.954 41.6262C28.1129 40.9032 30.4227 39.6889 32.2737 37.6511L20.4302 26.8933C20.6812 26.617 20.8936 26.4743 20.9798 26.4224C21.0629 26.3724 21.0437 26.3973 20.8729 26.4545L25.954 41.6262ZM32.2743 37.6505C35.0493 34.5947 35.3758 31.2984 35.339 29.7671L19.3436 30.1514C19.3175 29.0625 19.5807 27.8287 20.4296 26.8939L32.2743 37.6505ZM35.3403 30.09C35.3385 30.1952 35.335 30.2788 35.333 30.3239C35.3319 30.347 35.3309 30.3651 35.3305 30.3731C35.3303 30.3772 35.3301 30.3804 35.3301 30.3807C35.33 30.3823 35.3302 30.3792 35.3303 30.377C35.3307 30.3699 35.3336 30.3165 35.3361 30.2494C35.3388 30.179 35.3419 30.0727 35.3419 29.9436H19.3419C19.3419 29.817 19.345 29.7135 19.3475 29.6456C19.3488 29.6112 19.3501 29.5827 19.3511 29.5632C19.352 29.5444 19.3528 29.5297 19.353 29.5259C19.3531 29.5244 19.3532 29.5219 19.3531 29.5241C19.353 29.5251 19.3528 29.5289 19.3526 29.5337C19.3521 29.543 19.3511 29.5624 19.3499 29.5868C19.3477 29.6345 19.3441 29.7208 19.3424 29.8285L35.3403 30.09ZM12.6714 36.3047C13.6218 36.0625 15.299 35.8465 17.3994 35.8465V19.8465C14.4266 19.8465 11.3422 20.132 8.71967 20.8004L12.6714 36.3047ZM17.3994 35.8465C19.4998 35.8465 21.1772 36.0625 22.1276 36.3047L26.0793 20.8004C23.4568 20.132 20.3721 19.8465 17.3994 19.8465V35.8465ZM22.1273 36.3047C22.6488 36.4376 22.4524 36.4542 21.9251 36.1332C21.6672 35.9761 21.0513 35.5711 20.4117 34.8144C19.8341 34.1312 18.6549 32.4562 18.6549 29.9436H34.6549C34.6549 27.2602 33.3922 25.3858 32.6305 24.4848C31.8067 23.5103 30.9061 22.8689 30.2457 22.4668C28.9135 21.6557 27.4413 21.1476 26.0795 20.8005L22.1273 36.3047ZM18.6549 29.9436C18.6549 29.9436 18.6549 29.9485 18.6549 29.9539C18.6549 29.9598 18.6549 29.9696 18.655 29.9815C18.6551 30.0047 18.6553 30.0443 18.6562 30.0933C18.658 30.1954 18.6625 30.3444 18.6752 30.5239L34.6354 29.3969C34.6477 29.5709 34.652 29.7147 34.6537 29.8113C34.6551 29.892 34.6549 29.9622 34.6549 29.9436H18.6549ZM18.6706 29.4658C18.7746 27.7869 19.3944 26.5327 19.8818 25.7862C20.3749 25.0308 20.8966 24.5359 21.2286 24.2575C21.8742 23.7162 22.3755 23.5162 22.3953 23.508L28.5314 38.2846C29.3906 37.9278 30.4805 37.3801 31.5085 36.5182C32.269 35.8805 34.4278 33.8807 34.64 30.455L18.6706 29.4658ZM32.1621 26.5228C30.8309 24.4839 29.0009 23.4756 27.989 23.0071C26.8608 22.4847 25.7124 22.1663 24.7474 21.9527L21.2893 37.5745C21.659 37.6564 21.5817 37.6723 21.2666 37.5264C21.0935 37.4462 20.7466 37.2706 20.3266 36.9541C19.9065 36.6375 19.3059 36.0988 18.7646 35.2697L32.1621 26.5228ZM24.7474 21.9527C22.5015 21.4555 19.884 21.2445 17.3738 21.2445V37.2445C19.1196 37.2445 20.5113 37.4023 21.2893 37.5745L24.7474 21.9527ZM17.3738 21.2445C14.8636 21.2445 12.2461 21.4555 10.0001 21.9527L13.4584 37.5745C14.2363 37.4023 15.628 37.2445 17.3738 37.2445V21.2445ZM10.0002 21.9527C9.04535 22.1641 7.91557 22.4771 6.80434 22.986C5.80474 23.4438 4.02561 24.4137 2.69292 26.362L15.899 35.3953C15.3604 36.1826 14.7764 36.6922 14.3712 36.9912C13.9652 37.2906 13.6323 37.4571 13.4664 37.5331C13.1644 37.6714 13.0953 37.6549 13.4583 37.5745L10.0002 21.9527ZM12.4169 23.5125C12.4487 23.526 12.9867 23.7462 13.6615 24.3334C14.0086 24.6353 14.5547 25.1752 15.0528 25.9982C15.5496 26.8191 16.1453 28.175 16.1453 29.9436H0.145301C0.145301 33.5681 2.39211 35.7365 3.15883 36.4037C4.20201 37.3114 5.3154 37.8805 6.17498 38.2447L12.4169 23.5125ZM8.1453 21.9436H8.14389V37.9436H8.1453V21.9436ZM16.1439 29.9436C16.1439 32.4562 14.9647 34.1313 14.3871 34.8145C13.7474 35.5712 13.1315 35.9762 12.8736 36.1333C12.3463 36.4543 12.1499 36.4377 12.6715 36.3047L8.71962 20.8004C7.35775 21.1476 5.88555 21.6557 4.5533 22.4667C3.89287 22.8688 2.99224 23.5102 2.1684 24.4847C1.40665 25.3858 0.143887 27.2601 0.143887 29.9436H16.1439ZM22.3663 23.5159C22.3141 23.5322 22.2362 23.555 22.1293 23.5823L26.08 39.0868C26.4512 38.9923 26.8117 38.8903 27.1615 38.7804L22.3663 23.5159ZM22.1288 23.5824C21.1784 23.8246 19.5013 24.0406 17.4008 24.0406V40.0407C20.3737 40.0407 23.4581 39.7551 26.0805 39.0867L22.1288 23.5824ZM17.4008 24.0406C15.3004 24.0406 13.6232 23.8246 12.6728 23.5824L8.72108 39.0867C11.3436 39.7551 14.4279 40.0407 17.4008 40.0407V24.0406ZM12.6736 23.5826C12.5614 23.554 12.4805 23.5301 12.4265 23.5129L7.57255 38.7588C7.94149 38.8763 8.32359 38.9853 8.72032 39.0865L12.6736 23.5826ZM14.808 37.5295C14.4552 37.7948 14.157 37.9654 13.9713 38.063C13.7759 38.1656 13.6284 38.2274 13.5481 38.2588C13.3931 38.3194 13.3908 38.3048 13.6036 38.2577L10.1457 22.6358C8.68663 22.9588 6.80114 23.5313 5.1911 24.7422L14.808 37.5295ZM13.604 38.2576C14.3313 38.0966 15.6696 37.9436 17.3738 37.9436V21.9436C14.9169 21.9436 12.3492 22.148 10.1454 22.6359L13.604 38.2576ZM17.3738 37.9436C19.078 37.9436 20.4161 38.0966 21.1432 38.2576L24.6022 22.6359C22.3984 22.1479 19.8307 21.9436 17.3738 21.9436V37.9436ZM21.1439 38.2577C21.3625 38.3061 21.3547 38.3202 21.188 38.2543C21.1017 38.2202 20.9436 38.153 20.7354 38.0413C20.5387 37.9359 20.2172 37.7479 19.8394 37.4529L29.6883 24.8434C28.0319 23.5496 26.0673 22.9602 24.6015 22.6358L21.1439 38.2577ZM10.745 35.1775C10.7472 33.201 11.5168 31.2756 12.933 29.8316L24.356 41.035C25.9007 39.46 26.7426 37.3569 26.745 35.1951L10.745 35.1775ZM12.933 29.8316C14.3544 28.3824 16.3148 27.5382 18.393 27.5358L18.4114 43.5358C20.6713 43.5332 22.806 42.6153 24.356 41.035L12.933 29.8316ZM18.4022 27.5358H16.3454V43.5358H18.4022V27.5358ZM16.3546 27.5358C18.4328 27.5382 20.3932 28.3824 21.8146 29.8316L10.3917 41.035C11.9416 42.6153 14.0763 43.5332 16.3363 43.5358L16.3546 27.5358ZM21.8146 29.8316C23.2308 31.2756 24.0004 33.201 24.0026 35.1775L8.00264 35.1951C8.00502 37.3569 8.84693 39.46 10.3917 41.035L21.8146 29.8316ZM24.0026 35.1863V34.8046H8.00263V35.1863H24.0026ZM15.6244 42.7957C16.2078 42.8233 16.7992 42.8366 17.3976 42.8368L17.4015 26.8368C17.037 26.8367 16.6971 26.8286 16.3808 26.8136L15.6244 42.7957ZM17.3995 42.8368C17.9761 42.8368 18.5463 42.8245 19.1092 42.7988L18.3808 26.8154C18.0758 26.8293 17.749 26.8368 17.3995 26.8368V42.8368ZM10.745 34.8071V35.1863H26.745V34.8071H10.745ZM19.9501 26.3933C20.3726 25.9358 20.7244 25.7697 20.7468 25.7591C20.7727 25.7469 20.6403 25.8101 20.2883 25.8884C19.553 26.052 18.5312 26.1377 17.3994 26.1377V42.1377C19.1361 42.1377 21.4438 42.0225 23.763 41.5065C25.8943 41.0324 29.1845 39.9765 31.7034 37.2496L19.9501 26.3933ZM17.3994 26.1377C15.4122 26.1377 14.4501 25.8926 14.1426 25.7897C13.8811 25.7021 14.2896 25.7875 14.8498 26.3941L3.09483 37.2487C6.21913 40.6322 11.118 42.1377 17.3994 42.1377V26.1377ZM14.8324 26.3754C15.0138 26.5706 15.1759 26.7804 15.3172 27.0016L1.83376 35.6154C2.2087 36.2023 2.63634 36.7554 3.11217 37.2674L14.8324 26.3754ZM4.81175 38.3679C6.07508 39.0414 7.39718 39.4691 8.55119 39.7638L12.5106 24.2615C12.3022 24.2082 12.1858 24.1695 12.1432 24.1541C12.1239 24.1472 12.1316 24.1493 12.162 24.1625C12.192 24.1755 12.2533 24.2033 12.3392 24.2492L4.81175 38.3679ZM8.55447 39.7647C11.2258 40.4457 14.3677 40.7397 17.4008 40.7397V24.7397C15.2518 24.7397 13.5141 24.5173 12.5073 24.2606L8.55447 39.7647ZM17.4008 40.7397C20.434 40.7397 23.5758 40.4457 26.2472 39.7647L22.2947 24.2606C21.2876 24.5173 19.5497 24.7397 17.4008 24.7397V40.7397ZM26.2466 39.7649C27.3999 39.4709 28.7205 39.0441 29.9831 38.3716L22.461 24.2501C22.5468 24.2044 22.6081 24.1765 22.6383 24.1634C22.669 24.1501 22.6771 24.1478 22.6583 24.1546C22.6168 24.1695 22.5019 24.2078 22.2953 24.2604L26.2466 39.7649ZM19.4842 26.9979C19.6247 26.7784 19.7855 26.5703 19.9656 26.3765L31.6878 37.2664C32.161 36.757 32.5865 36.2071 32.9599 35.6237L19.4842 26.9979Z" fill="#E54343" mask="url(#path-10-inside-4)"/>
</svg>
